<svg width="64" height="66" viewBox="0 0 64 66" fill="none" xmlns="http://www.w3.org/2000/svg">
<g clip-path="url(#clip0_81_4627)">
<path d="M47.9025 4.64209H13.6901C7.11246 4.64209 1.78027 9.97396 1.78027 16.5511V50.7615C1.78027 57.3387 7.11246 62.6706 13.6901 62.6706H47.9025C54.4801 62.6706 59.8123 57.3387 59.8123 50.7615V16.5511C59.8123 9.97396 54.4801 4.64209 47.9025 4.64209Z" fill="#06173F" stroke="#AEDFF8" stroke-width="3" stroke-miterlimit="10"/>
<path d="M60.1082 27.3885C59.6684 22.1439 57.5587 17.8125 55.3946 17.7146C53.2306 17.6167 51.833 21.7887 52.2728 27.0334C52.7125 32.278 54.8223 36.6094 56.9863 36.7073C59.1503 36.8052 60.5479 32.6332 60.1082 27.3885Z" fill="white"/>
<path d="M30.6189 4.81664L29.9679 5.02539C29.4061 5.20553 29.0967 5.80695 29.2769 6.3687L31.3015 12.6817C31.4816 13.2435 32.0831 13.5528 32.6449 13.3727L33.2959 13.1639C33.8576 12.9838 34.167 12.3824 33.9869 11.8206L31.9623 5.5076C31.7821 4.94585 31.1807 4.63649 30.6189 4.81664Z" fill="white"/>
<path d="M29.7698 6.57726C31.5859 6.57726 33.0581 5.10511 33.0581 3.28912C33.0581 1.47313 31.5859 0.000976562 29.7698 0.000976562C27.9537 0.000976562 26.4814 1.47313 26.4814 3.28912C26.4814 5.10511 27.9537 6.57726 29.7698 6.57726Z" fill="white"/>
<path d="M31.9677 4.73399C31.9677 4.73399 32.216 3.20385 31.6632 2.18376C31.1104 1.16367 30.5576 0.822754 30.5576 0.822754C30.5576 0.822754 31.6463 1.22687 32.0576 2.05736C32.686 3.32758 31.9677 4.73399 31.9677 4.73399Z" fill="white"/>
<path d="M40.6709 63.5905C42.5302 63.2466 43.7541 61.436 43.4046 59.5465C43.055 57.657 41.2644 56.404 39.4051 56.7479C37.5458 57.0918 36.3219 58.9024 36.6715 60.7919C37.021 62.6814 38.8116 63.9344 40.6709 63.5905Z" fill="white"/>
<path d="M29.8999 54.9094L30.0299 59.4215C30.0299 59.4215 34.0126 61.969 36.514 61.669C39.0154 61.3682 39.3189 60.1229 39.3189 60.1229L38.5845 54.0718L29.9008 54.9103L29.8999 54.9094Z" fill="white"/>
<path d="M29.8247 53.6526L29.9547 58.1646C29.9547 58.1646 33.9374 60.7122 36.4388 60.4122C38.9402 60.1113 39.2437 58.866 39.2437 58.866L38.5093 52.8149L29.8256 53.6534L29.8247 53.6526Z" fill="white"/>
<path d="M34.7034 54.7812C47.978 54.7812 58.7392 44.0207 58.7392 30.7468C58.7392 17.473 47.978 6.7124 34.7034 6.7124C21.4287 6.7124 10.6675 17.473 10.6675 30.7468C10.6675 44.0207 21.4287 54.7812 34.7034 54.7812Z" fill="white"/>
<path d="M35.0282 54.7812C47.8628 54.7812 58.2674 44.0207 58.2674 30.7468C58.2674 17.473 47.8628 6.7124 35.0282 6.7124C22.1936 6.7124 11.7891 17.473 11.7891 30.7468C11.7891 44.0207 22.1936 54.7812 35.0282 54.7812Z" fill="white"/>
<path d="M53.941 17.4236C53.941 14.0064 45.5198 11.2363 35.1314 11.2363C24.7429 11.2363 16.3218 14.0064 16.3218 17.4236" fill="white"/>
<path d="M53.4957 44.2139C53.4957 47.6311 45.0745 50.4012 34.6861 50.4012C24.2976 50.4012 15.8765 47.6311 15.8765 44.2139" fill="white"/>
<path d="M27.4195 35.8341C32.3408 35.8341 36.3303 31.8449 36.3303 26.9239C36.3303 22.0029 32.3408 18.0137 27.4195 18.0137C22.4983 18.0137 18.5088 22.0029 18.5088 26.9239C18.5088 31.8449 22.4983 35.8341 27.4195 35.8341Z" fill="white"/>
<path d="M28.0366 33.5855C31.8969 33.5855 35.0263 30.4563 35.0263 26.5962C35.0263 22.7362 31.8969 19.6069 28.0366 19.6069C24.1763 19.6069 21.0469 22.7362 21.0469 26.5962C21.0469 30.4563 24.1763 33.5855 28.0366 33.5855Z" fill="white"/>
<path d="M28.6491 30.745C31.1019 30.745 33.0903 28.7568 33.0903 26.3041C33.0903 23.8515 31.1019 21.8633 28.6491 21.8633C26.1964 21.8633 24.208 23.8515 24.208 26.3041C24.208 28.7568 26.1964 30.745 28.6491 30.745Z" fill="white"/>
<path d="M29.0441 29.8934C31.0859 29.8934 32.741 28.2383 32.741 26.1967C32.741 24.1551 31.0859 22.5 29.0441 22.5C27.0023 22.5 25.3472 24.1551 25.3472 26.1967C25.3472 28.2383 27.0023 29.8934 29.0441 29.8934Z" fill="white"/>
<path d="M28.2499 24.6346C28.5807 24.6346 28.8488 24.3664 28.8488 24.0356C28.8488 23.7047 28.5807 23.4365 28.2499 23.4365C27.919 23.4365 27.6509 23.7047 27.6509 24.0356C27.6509 24.3664 27.919 24.6346 28.2499 24.6346Z" fill="white"/>
<path d="M23.195 20.5405C23.195 20.5405 21.0042 22.1623 20.4585 25.1372C19.9128 28.1111 20.9846 30.0845 20.9846 30.0845C20.9846 30.0845 19.0182 27.1604 19.5354 24.7989C20.3259 21.1877 23.1941 20.5405 23.1941 20.5405H23.195Z" fill="white"/>
<path d="M50.4039 35.8582C54.1748 34.4776 55.86 29.6124 54.1679 24.9914C52.4759 20.3705 48.0473 17.7436 44.2765 19.1242C40.5056 20.5048 38.8204 25.3701 40.5125 29.991C42.2045 34.612 46.6331 37.2388 50.4039 35.8582Z" fill="white"/>
<path d="M49.2071 33.6983C52.165 32.6153 53.4868 28.799 52.1596 25.1742C50.8323 21.5495 47.3585 19.4889 44.4006 20.5719C41.4428 21.6548 40.1209 25.4712 41.4482 29.0959C42.7754 32.7207 46.2492 34.7812 49.2071 33.6983Z" fill="white"/>
<path d="M47.7997 30.983C49.6791 30.2949 50.5191 27.87 49.6758 25.5669C48.8324 23.2639 46.6252 21.9546 44.7458 22.6428C42.8664 23.3309 42.0264 25.7557 42.8697 28.0588C43.7131 30.3619 45.9203 31.6711 47.7997 30.983Z" fill="white"/>
<path d="M47.2071 30.155C48.7717 29.5822 49.471 27.5636 48.7689 25.6465C48.0669 23.7293 46.2295 22.6395 44.6649 23.2123C43.1004 23.7851 42.4011 25.8037 43.1031 27.7209C43.8051 29.638 45.6426 30.7278 47.2071 30.155Z" fill="white"/>
<path d="M46.6794 25.1792C46.9328 25.0864 47.046 24.7594 46.9322 24.4487C46.8185 24.138 46.5208 23.9614 46.2674 24.0542C46.014 24.147 45.9008 24.474 46.0146 24.7847C46.1283 25.0954 46.426 25.272 46.6794 25.1792Z" fill="white"/>
<path d="M50.501 21.4951C50.501 21.4951 52.4327 23.2122 53.0665 26.1541C53.7003 29.0959 52.9196 30.9625 52.9196 30.9625C52.9196 30.9625 54.3929 28.2192 53.8196 25.8781C52.9428 22.2989 50.501 21.4951 50.501 21.4951Z" fill="white"/>
<path d="M32.3423 54.7634C35.0965 54.872 37.7475 44.3025 38.2638 31.1571C38.7801 18.0117 36.9659 7.26689 34.2126 7.15918" fill="white"/>
<path d="M30.2593 40.8311C30.2593 40.8311 30.618 42.152 32.2115 42.5374C33.8049 42.9229 39.3125 42.9077 39.3125 42.9077C39.3125 42.9077 41.9216 42.8223 42.761 42.2873C43.6014 41.7523 43.8853 41.1132 43.8853 41.1132" fill="white"/>
<path d="M16.95 28.2183C17.6363 23.0004 16.496 18.3192 14.4031 17.7628C12.3094 17.2065 10.0564 20.986 9.37004 26.2039C8.68371 31.4219 9.82404 36.1031 11.9169 36.6594C14.0106 37.2157 16.2636 33.4362 16.95 28.2183Z" fill="white"/>
<path d="M13.0992 27.359C13.6369 23.2733 12.923 19.6549 11.5049 19.2784C10.0868 18.9019 8.50142 21.9088 7.96375 25.9945C7.42608 30.0802 8.14001 33.6985 9.55807 34.0751C10.9761 34.4516 12.5616 31.4447 13.0992 27.359Z" fill="white"/>
<path d="M9.71842 26.8777C10.0789 24.1406 11.0243 22.0443 11.927 21.8476C11.7498 21.5076 11.5344 21.2886 11.2869 21.2227C10.3042 20.9619 9.18342 23.2113 8.78462 26.2484C8.38493 29.2846 8.85762 31.9586 9.84038 32.2194C9.93741 32.2452 10.0362 32.2452 10.135 32.2238C9.60982 31.2162 9.42021 29.1484 9.71931 26.8777H9.71842Z" fill="white"/>
<path d="M13.5845 30.4862C13.0192 32.5486 12.1958 34.231 11.4116 34.7428C11.1899 34.8879 10.9869 34.927 10.8071 34.8745C11.2157 35.7255 11.8513 35.9899 12.6409 35.4754C14.213 34.4499 15.8402 30.6918 16.458 26.8037C15.5536 28.3801 14.5628 29.6468 13.5845 30.4862Z" fill="white"/>
<path d="M32.1997 60.6861C32.5394 58.9673 31.3111 57.2767 29.4561 56.9101C27.6012 56.5435 25.8221 57.6397 25.4823 59.3585C25.1426 61.0773 26.3709 62.7679 28.2259 63.1345C30.0808 63.5011 31.86 62.4049 32.1997 60.6861Z" fill="white"/>
<path d="M29.9366 61.177C30.3009 59.3343 29.4662 57.6171 28.0723 57.3416C26.6784 57.0661 25.2532 58.3367 24.889 60.1795C24.5248 62.0222 25.3594 63.7394 26.7533 64.0149C28.1472 64.2904 29.5724 63.0198 29.9366 61.177Z" fill="white"/>
<path d="M28.3188 60.8568C28.5744 59.5638 28.0137 58.3639 27.0664 58.1767C26.1192 57.9895 25.1441 58.8859 24.8885 60.1789C24.633 61.4719 25.1937 62.6718 26.1409 62.859C27.0882 63.0462 28.0632 62.1498 28.3188 60.8568Z" fill="white"/>
<path d="M61.7327 27.3885C61.2929 22.1439 59.1832 17.8125 57.0192 17.7146C54.8551 17.6167 53.4575 21.7887 53.8973 27.0334C54.337 32.278 56.4468 36.6094 58.6108 36.7073C60.7748 36.8052 62.1724 32.6332 61.7327 27.3885Z" fill="white" stroke="#231F20" stroke-miterlimit="10"/>
<path d="M32.2429 4.81712L31.5919 5.02588C31.0301 5.20602 30.7207 5.80744 30.9009 6.36919L32.9255 12.6822C33.1056 13.244 33.7071 13.5533 34.2689 13.3732L34.9199 13.1644C35.4817 12.9843 35.791 12.3829 35.6109 11.8211L33.5863 5.50809C33.4062 4.94634 32.8047 4.63698 32.2429 4.81712Z" fill="#231F20"/>
<path d="M31.3948 6.57726C33.2109 6.57726 34.6831 5.10511 34.6831 3.28912C34.6831 1.47313 33.2109 0.000976562 31.3948 0.000976562C29.5787 0.000976562 28.1064 1.47313 28.1064 3.28912C28.1064 5.10511 29.5787 6.57726 31.3948 6.57726Z" fill="#231F20"/>
<path d="M33.5927 4.73399C33.5927 4.73399 33.841 3.20385 33.2882 2.18376C32.7354 1.16367 32.1826 0.822754 32.1826 0.822754C32.1826 0.822754 33.2713 1.22687 33.6826 2.05736C34.311 3.32758 33.5927 4.73399 33.5927 4.73399Z" fill="white"/>
<path d="M45.9022 61.5107C45.491 59.2881 42.8925 56.4005 41.0338 56.745C39.1742 57.0894 38.001 59.1697 38.4122 61.3923" fill="white"/>
<path d="M45.9022 61.5107C45.491 59.2881 42.8925 56.4005 41.0338 56.745C39.1742 57.0894 38.001 59.1697 38.4122 61.3923" stroke="#231F20" stroke-miterlimit="10"/>
<path d="M31.5249 54.9094L31.6549 59.4215C31.6549 59.4215 35.6376 61.969 38.139 61.669C40.6404 61.3682 40.9439 60.1229 40.9439 60.1229L40.2095 54.0718L31.5258 54.9103L31.5249 54.9094Z" fill="white" stroke="#231F20" stroke-miterlimit="10"/>
<path d="M31.4492 53.6526L31.5792 58.1646C31.5792 58.1646 35.5619 60.7122 38.0633 60.4122C40.5647 60.1113 40.8683 58.866 40.8683 58.866L40.1339 52.8149L31.4501 53.6534L31.4492 53.6526Z" fill="#231F20"/>
<path d="M36.3274 54.7812C49.602 54.7812 60.3632 44.0207 60.3632 30.7468C60.3632 17.473 49.602 6.7124 36.3274 6.7124C23.0527 6.7124 12.2915 17.473 12.2915 30.7468C12.2915 44.0207 23.0527 54.7812 36.3274 54.7812Z" fill="#231F20"/>
<path d="M36.6532 54.7812C49.4878 54.7812 59.8924 44.0207 59.8924 30.7468C59.8924 17.473 49.4878 6.7124 36.6532 6.7124C23.8186 6.7124 13.4141 17.473 13.4141 30.7468C13.4141 44.0207 23.8186 54.7812 36.6532 54.7812Z" fill="white" stroke="#231F20" stroke-width="1.5" stroke-miterlimit="10"/>
<g opacity="0.15">
<path d="M55.5655 17.4236C55.5655 14.0064 47.1443 11.2363 36.7559 11.2363C26.3674 11.2363 17.9463 14.0064 17.9463 17.4236" fill="white"/>
<path d="M55.5655 17.4236C55.5655 14.0064 47.1443 11.2363 36.7559 11.2363C26.3674 11.2363 17.9463 14.0064 17.9463 17.4236" stroke="#231F20" stroke-miterlimit="10"/>
</g>
<g opacity="0.15">
<path d="M55.1202 44.2139C55.1202 47.6311 46.699 50.4012 36.3106 50.4012C25.9221 50.4012 17.501 47.6311 17.501 44.2139" fill="white"/>
<path d="M55.1202 44.2139C55.1202 47.6311 46.699 50.4012 36.3106 50.4012C25.9221 50.4012 17.501 47.6311 17.501 44.2139" stroke="#231F20" stroke-miterlimit="10"/>
</g>
<g opacity="0.15">
<path d="M37.5205 59.6851C37.5205 59.6851 37.7635 60.6722 38.0741 62.2273L37.5205 59.6851Z" fill="white"/>
<path d="M37.5205 59.6851C37.5205 59.6851 37.7635 60.6722 38.0741 62.2273" stroke="#231F20" stroke-width="2" stroke-miterlimit="10"/>
</g>
<path d="M29.044 35.8341C33.9653 35.8341 37.9548 31.8449 37.9548 26.9239C37.9548 22.0029 33.9653 18.0137 29.044 18.0137C24.1228 18.0137 20.1333 22.0029 20.1333 26.9239C20.1333 31.8449 24.1228 35.8341 29.044 35.8341Z" fill="#ADDFF8" stroke="#231F20" stroke-miterlimit="10"/>
<path d="M29.6611 33.5855C33.5214 33.5855 36.6508 30.4563 36.6508 26.5962C36.6508 22.7362 33.5214 19.6069 29.6611 19.6069C25.8008 19.6069 22.6714 22.7362 22.6714 26.5962C22.6714 30.4563 25.8008 33.5855 29.6611 33.5855Z" fill="white" stroke="#231F20" stroke-width="0.5" stroke-miterlimit="10"/>
<path d="M30.2741 30.745C32.7269 30.745 34.7153 28.7568 34.7153 26.3041C34.7153 23.8515 32.7269 21.8633 30.2741 21.8633C27.8214 21.8633 25.833 23.8515 25.833 26.3041C25.833 28.7568 27.8214 30.745 30.2741 30.745Z" fill="#416AB2"/>
<path d="M30.6686 29.8934C32.7104 29.8934 34.3656 28.2383 34.3656 26.1967C34.3656 24.1551 32.7104 22.5 30.6686 22.5C28.6269 22.5 26.9717 24.1551 26.9717 26.1967C26.9717 28.2383 28.6269 29.8934 30.6686 29.8934Z" fill="#231F20"/>
<path d="M29.8744 24.6342C30.2052 24.6342 30.4733 24.3659 30.4733 24.0351C30.4733 23.7042 30.2052 23.436 29.8744 23.436C29.5436 23.436 29.2754 23.7042 29.2754 24.0351C29.2754 24.3659 29.5436 24.6342 29.8744 24.6342Z" fill="white"/>
<path d="M24.8195 20.5405C24.8195 20.5405 22.6287 22.1623 22.083 25.1372C21.5374 28.1111 22.6091 30.0845 22.6091 30.0845C22.6091 30.0845 20.6427 27.1604 21.1599 24.7989C21.9504 21.1877 24.8186 20.5405 24.8186 20.5405H24.8195Z" fill="white"/>
<path d="M52.0279 35.8577C55.7988 34.4771 57.484 29.6119 55.792 24.9909C54.0999 20.37 49.6714 17.7431 45.9005 19.1237C42.1296 20.5043 40.4444 25.3696 42.1365 29.9905C43.8285 34.6115 48.2571 37.2383 52.0279 35.8577Z" fill="#ADDFF8" stroke="#231F20" stroke-miterlimit="10"/>
<path d="M50.8326 33.6983C53.7904 32.6153 55.1123 28.799 53.785 25.1742C52.4578 21.5495 48.984 19.4889 46.0261 20.5719C43.0682 21.6548 41.7464 25.4712 43.0736 29.0959C44.4009 32.7207 47.8747 34.7812 50.8326 33.6983Z" fill="white" stroke="#231F20" stroke-width="0.5" stroke-miterlimit="10"/>
<path d="M49.4257 30.983C51.3051 30.2949 52.145 27.87 51.3017 25.567C50.4584 23.2639 48.2512 21.9546 46.3718 22.6428C44.4923 23.3309 43.6524 25.7557 44.4957 28.0588C45.339 30.3619 47.5463 31.6711 49.4257 30.983Z" fill="#416AB2"/>
<path d="M48.8321 30.1545C50.3967 29.5817 51.096 27.5631 50.3939 25.646C49.6919 23.7288 47.8545 22.639 46.2899 23.2118C44.7254 23.7847 44.0261 25.8032 44.7281 27.7204C45.4301 29.6375 47.2676 30.7273 48.8321 30.1545Z" fill="#231F20"/>
<path d="M48.3044 25.1787C48.5578 25.086 48.671 24.7589 48.5572 24.4482C48.4435 24.1376 48.1458 23.9609 47.8924 24.0537C47.639 24.1465 47.5258 24.4735 47.6396 24.7842C47.7533 25.0949 48.051 25.2715 48.3044 25.1787Z" fill="white"/>
<path d="M52.1255 21.4951C52.1255 21.4951 54.0572 23.2122 54.691 26.1541C55.3248 29.0959 54.5441 30.9625 54.5441 30.9625C54.5441 30.9625 56.0174 28.2192 55.4441 25.8781C54.5673 22.2989 52.1255 21.4951 52.1255 21.4951Z" fill="white"/>
<g opacity="0.15">
<path d="M33.9678 54.7634C36.722 54.872 39.373 44.3025 39.8893 31.1571C40.4056 18.0117 38.5914 7.26689 35.8381 7.15918" fill="white"/>
<path d="M33.9678 54.7634C36.722 54.872 39.373 44.3025 39.8893 31.1571C40.4056 18.0117 38.5914 7.26689 35.8381 7.15918" stroke="#231F20" stroke-miterlimit="10"/>
</g>
<path d="M31.8848 40.8311C31.8848 40.8311 32.2435 42.152 33.8369 42.5374C35.4304 42.9229 40.9379 42.9077 40.9379 42.9077C40.9379 42.9077 43.5471 42.8223 44.3865 42.2873C45.2268 41.7523 45.5108 41.1132 45.5108 41.1132" fill="white"/>
<path d="M31.8848 40.8311C31.8848 40.8311 32.2435 42.152 33.8369 42.5374C35.4304 42.9229 40.9379 42.9077 40.9379 42.9077C40.9379 42.9077 43.5471 42.8223 44.3865 42.2873C45.2268 41.7523 45.5108 41.1132 45.5108 41.1132" stroke="#231F20" stroke-miterlimit="10" stroke-linecap="round"/>
<path d="M18.5755 28.2178C19.2618 22.9999 18.1215 18.3187 16.0286 17.7623C13.9349 17.206 11.6819 20.9855 10.9955 26.2034C10.3092 31.4214 11.4495 36.1026 13.5424 36.6589C15.6361 37.2152 17.8891 33.4358 18.5755 28.2178Z" fill="white" stroke="#231F20" stroke-miterlimit="10"/>
<path d="M14.7237 27.359C15.2614 23.2733 14.5475 19.6549 13.1294 19.2784C11.7114 18.9019 10.1259 21.9088 9.58826 25.9945C9.05059 30.0802 9.76452 33.6985 11.1826 34.0751C12.6006 34.4516 14.1861 31.4447 14.7237 27.359Z" fill="white" stroke="#231F20" stroke-miterlimit="10"/>
<path d="M11.3429 26.8777C11.7035 24.1406 12.6488 22.0443 13.5515 21.8476C13.3743 21.5076 13.1589 21.2886 12.9114 21.2227C11.9287 20.9619 10.8079 23.2113 10.4091 26.2484C10.0094 29.2846 10.4821 31.9586 11.4649 32.2194C11.5619 32.2452 11.6607 32.2452 11.7595 32.2238C11.2343 31.2162 11.0447 29.1484 11.3438 26.8777H11.3429Z" fill="#ADDFF8"/>
<path d="M12.6279 19.2474L15.1961 17.7627" stroke="#231F20" stroke-miterlimit="10"/>
<path opacity="0.25" d="M15.2095 30.4862C14.6442 32.5486 13.8208 34.231 13.0366 34.7428C12.8149 34.8879 12.6119 34.927 12.4321 34.8745C12.8407 35.7255 13.4763 35.9899 14.2659 35.4754C15.838 34.4499 17.4652 30.6918 18.083 26.8037C17.1786 28.3801 16.1878 29.6468 15.2095 30.4862Z" fill="#ADDFF8"/>
<path d="M27.1075 60.6426C27.1075 60.6426 26.4676 61.3173 25.5767 62.3774L27.1075 60.6426Z" fill="white"/>
<path d="M27.1075 60.6426C27.1075 60.6426 26.4676 61.3173 25.5767 62.3774" stroke="#231F20" stroke-miterlimit="10"/>
<path d="M33.648 61.5935C34.0869 59.3762 32.9385 57.2808 31.0834 56.9141C29.2282 56.5473 27.3695 58.0472 26.9307 60.2645" fill="white"/>
<path d="M33.648 61.5935C34.0869 59.3762 32.9385 57.2808 31.0834 56.9141C29.2282 56.5473 27.3695 58.0472 26.9307 60.2645" stroke="#231F20" stroke-miterlimit="10"/>
<path d="M31.6816 60.5703C31.9796 59.0623 31.0913 57.6165 29.6974 57.341C28.3036 57.0655 26.932 58.0647 26.6339 59.5727C26.3359 61.0807 27.2242 62.5265 28.618 62.802C30.0119 63.0775 31.3835 62.0783 31.6816 60.5703Z" fill="white" stroke="#231F20" stroke-miterlimit="10"/>
<path d="M29.9433 60.8573C30.1989 59.5643 29.6382 58.3644 28.6909 58.1772C27.7437 57.99 26.7686 58.8864 26.513 60.1794C26.2575 61.4723 26.8182 62.6723 27.7654 62.8595C28.7127 63.0467 29.6878 62.1503 29.9433 60.8573Z" fill="white" stroke="#231F20" stroke-miterlimit="10"/>
<path d="M47.7833 62.666H19.877" stroke="#AEDFF8" stroke-width="3" stroke-miterlimit="10"/>
</g>
<defs>
<clipPath id="clip0_81_4627">
<rect width="64" height="66" fill="white"/>
</clipPath>
</defs>
</svg>
