<svg width="192" height="199" viewBox="0 0 192 199" fill="none" xmlns="http://www.w3.org/2000/svg">
<g clip-path="url(#clip0_54_1611)">
<path d="M146.886 14.2803H41.6381C21.4034 14.2803 5 30.686 5 50.9235V156.186C5 176.424 21.4034 192.829 41.6381 192.829H146.886C167.121 192.829 183.524 176.424 183.524 156.186V50.9235C183.524 30.686 167.121 14.2803 146.886 14.2803Z" fill="#AEDFF8" stroke="#231F20" stroke-width="10" stroke-miterlimit="10"/>
<path d="M184.433 84.2692C183.081 68.1318 176.59 54.8045 169.933 54.5032C163.276 54.202 158.977 67.039 160.329 83.1764C161.682 99.3138 168.172 112.641 174.83 112.942C181.487 113.244 185.786 100.407 184.433 84.2692Z" fill="white"/>
<path d="M93.7159 14.8174L91.7132 15.4598C89.985 16.014 89.0333 17.8646 89.5875 19.593L95.8157 39.0177C96.3699 40.7462 98.2202 41.6981 99.9484 41.1438L101.951 40.5015C103.679 39.9472 104.631 38.0967 104.077 36.3682L97.8486 16.9435C97.2944 15.215 95.4441 14.2632 93.7159 14.8174Z" fill="white"/>
<path d="M91.1032 20.2347C96.6901 20.2347 101.219 15.705 101.219 10.1174C101.219 4.5297 96.6901 0 91.1032 0C85.5164 0 80.9873 4.5297 80.9873 10.1174C80.9873 15.705 85.5164 20.2347 91.1032 20.2347Z" fill="white"/>
<path d="M97.8646 14.5624C97.8646 14.5624 98.6286 9.85429 96.928 6.71555C95.2275 3.57682 93.5269 2.52783 93.5269 2.52783C93.5269 2.52783 96.876 3.77128 98.1412 6.32664C100.075 10.235 97.8646 14.5624 97.8646 14.5624Z" fill="white"/>
<path d="M124.638 195.66C130.358 194.602 134.123 189.031 133.048 183.217C131.972 177.403 126.464 173.548 120.744 174.606C115.024 175.664 111.259 181.235 112.335 187.049C113.41 192.863 118.918 196.718 124.638 195.66Z" fill="white"/>
<path d="M91.5029 168.949L91.9027 182.833C91.9027 182.833 104.155 190.671 111.85 189.748C119.545 188.823 120.479 184.991 120.479 184.991L118.219 166.372L91.5057 168.952L91.5029 168.949Z" fill="white"/>
<path d="M91.2729 165.082L91.6728 178.965C91.6728 178.965 103.925 186.804 111.62 185.881C119.315 184.955 120.249 181.124 120.249 181.124L117.99 162.505L91.2757 165.085L91.2729 165.082Z" fill="white"/>
<path d="M106.28 168.555C147.117 168.555 180.222 135.446 180.222 94.6029C180.222 53.7603 147.117 20.6509 106.28 20.6509C65.4432 20.6509 32.3384 53.7603 32.3384 94.6029C32.3384 135.446 65.4432 168.555 106.28 168.555Z" fill="white"/>
<path d="M107.28 168.555C146.763 168.555 178.77 135.446 178.77 94.6029C178.77 53.7603 146.763 20.6509 107.28 20.6509C67.7965 20.6509 35.7891 53.7603 35.7891 94.6029C35.7891 135.446 67.7965 168.555 107.28 168.555Z" fill="white"/>
<path d="M165.461 53.6077C165.461 43.0932 139.555 34.5698 107.597 34.5698C75.6394 34.5698 49.7334 43.0932 49.7334 53.6077" fill="white"/>
<path d="M164.092 136.04C164.092 146.554 138.186 155.077 106.228 155.077C74.2697 155.077 48.3638 146.554 48.3638 136.04" fill="white"/>
<path d="M83.8736 110.256C99.0129 110.256 111.286 97.9813 111.286 82.8399C111.286 67.6984 99.0129 55.4238 83.8736 55.4238C68.7343 55.4238 56.4614 67.6984 56.4614 82.8399C56.4614 97.9813 68.7343 110.256 83.8736 110.256Z" fill="white"/>
<path d="M85.7716 103.337C97.6471 103.337 107.274 93.7089 107.274 81.8317C107.274 69.9545 97.6471 60.3262 85.7716 60.3262C73.8961 60.3262 64.269 69.9545 64.269 81.8317C64.269 93.7089 73.8961 103.337 85.7716 103.337Z" fill="white"/>
<path d="M87.6554 94.5974C95.2009 94.5974 101.318 88.4798 101.318 80.9332C101.318 73.3867 95.2009 67.269 87.6554 67.269C80.11 67.269 73.9932 73.3867 73.9932 80.9332C73.9932 88.4798 80.11 94.5974 87.6554 94.5974Z" fill="white"/>
<path d="M88.8714 91.9765C95.1525 91.9765 100.244 86.884 100.244 80.602C100.244 74.3201 95.1525 69.2275 88.8714 69.2275C82.5904 69.2275 77.4985 74.3201 77.4985 80.602C77.4985 86.884 82.5904 91.9765 88.8714 91.9765Z" fill="white"/>
<path d="M86.4289 75.7954C87.4468 75.7954 88.2719 74.9701 88.2719 73.9521C88.2719 72.9341 87.4468 72.1089 86.4289 72.1089C85.4111 72.1089 84.5859 72.9341 84.5859 73.9521C84.5859 74.9701 85.4111 75.7954 86.4289 75.7954Z" fill="white"/>
<path d="M70.877 63.1992C70.877 63.1992 64.1377 68.1894 62.459 77.3427C60.7803 86.4932 64.0774 92.5653 64.0774 92.5653C64.0774 92.5653 58.0281 83.5681 59.6192 76.3019C62.0509 65.1904 70.8743 63.1992 70.8743 63.1992H70.877Z" fill="white"/>
<path d="M154.581 110.33C166.181 106.082 171.365 91.1123 166.16 76.8939C160.955 62.6756 147.331 54.593 135.731 58.841C124.13 63.089 118.946 78.059 124.152 92.2773C129.357 106.496 142.98 114.578 154.581 110.33Z" fill="white"/>
<path d="M150.898 103.684C159.997 100.352 164.064 88.6089 159.981 77.4558C155.898 66.3027 145.211 59.9626 136.112 63.2947C127.013 66.6269 122.946 78.3695 127.029 89.5226C131.112 100.676 141.799 107.016 150.898 103.684Z" fill="white"/>
<path d="M146.57 95.3292C152.351 93.2119 154.935 85.7509 152.341 78.6644C149.747 71.578 142.956 67.5496 137.175 69.6669C131.393 71.7841 128.809 79.2452 131.403 86.3316C133.998 93.4181 140.788 97.4464 146.57 95.3292Z" fill="white"/>
<path d="M144.745 92.782C149.558 91.0195 151.71 84.8086 149.55 78.9096C147.39 73.0107 141.738 69.6574 136.925 71.42C132.112 73.1825 129.961 79.3934 132.12 85.2924C134.28 91.1914 139.932 94.5446 144.745 92.782Z" fill="white"/>
<path d="M143.122 77.4721C143.902 77.1866 144.251 76.1802 143.901 75.2243C143.551 74.2683 142.635 73.7248 141.855 74.0104C141.075 74.2959 140.727 75.3023 141.077 76.2582C141.427 77.2142 142.343 77.7576 143.122 77.4721Z" fill="white"/>
<path d="M154.88 66.1353C154.88 66.1353 160.822 71.4185 162.772 80.4705C164.722 89.5224 162.32 95.2658 162.32 95.2658C162.32 95.2658 166.853 86.8246 165.089 79.6214C162.392 68.6084 154.88 66.1353 154.88 66.1353Z" fill="white"/>
<path d="M99.0176 168.5C107.49 168.834 115.646 136.313 117.234 95.8656C118.822 55.4181 113.241 22.3573 104.771 22.0259" fill="white"/>
<path d="M92.6094 125.632C92.6094 125.632 93.713 129.696 98.6148 130.882C103.517 132.068 120.46 132.022 120.46 132.022C120.46 132.022 128.486 131.759 131.069 130.113C133.654 128.467 134.527 126.5 134.527 126.5" fill="white"/>
<path d="M51.6666 86.8217C53.778 70.7665 50.27 56.3628 43.8318 54.6511C37.391 52.9393 30.4599 64.5685 28.3485 80.6237C26.2371 96.6789 29.7451 111.083 36.1833 112.794C42.6242 114.506 49.5553 102.877 51.6666 86.8217Z" fill="white"/>
<path d="M39.8199 84.1791C41.4739 71.6077 39.2777 60.4743 34.9153 59.3157C30.5529 58.1572 25.6756 67.4091 24.0216 79.9805C22.3676 92.5518 24.5638 103.685 28.9262 104.844C33.2886 106.002 38.1658 96.7505 39.8199 84.1791Z" fill="white"/>
<path d="M29.419 82.6972C30.5281 74.2752 33.4363 67.8252 36.2132 67.2199C35.6682 66.1736 35.0055 65.4999 34.2442 65.2972C31.2209 64.4947 27.7732 71.4158 26.5463 80.7608C25.3168 90.1031 26.7709 98.3306 29.7942 99.1331C30.0927 99.2125 30.3966 99.2125 30.7006 99.1468C29.0849 96.0464 28.5016 89.684 29.4217 82.6972H29.419Z" fill="white"/>
<path d="M41.3121 93.8004C39.5732 100.146 37.0401 105.323 34.6275 106.898C33.9456 107.344 33.3212 107.465 32.7681 107.303C34.025 109.921 35.9803 110.735 38.4093 109.152C43.2455 105.997 48.2514 94.4331 50.1519 82.4697C47.3696 87.3203 44.3217 91.2177 41.3121 93.8004Z" fill="white"/>
<path d="M98.5789 186.723C99.6241 181.434 95.8454 176.232 90.139 175.104C84.4326 173.976 78.9594 177.349 77.9143 182.638C76.8692 187.927 80.6479 193.128 86.3543 194.256C92.0607 195.384 97.5338 192.011 98.5789 186.723Z" fill="white"/>
<path d="M91.6164 188.233C92.7369 182.563 90.1692 177.28 85.8812 176.432C81.5933 175.585 77.2089 179.494 76.0884 185.164C74.9679 190.834 77.5356 196.118 81.8236 196.965C86.1115 197.813 90.4959 193.904 91.6164 188.233Z" fill="white"/>
<path d="M86.6402 187.249C87.4264 183.27 85.7014 179.578 82.7874 179.002C79.8734 178.426 76.8738 181.184 76.0876 185.163C75.3014 189.141 77.0263 192.833 79.9404 193.409C82.8544 193.985 85.854 191.227 86.6402 187.249Z" fill="white"/>
<path d="M189.431 84.2692C188.078 68.1318 181.588 54.8045 174.931 54.5032C168.274 54.202 163.974 67.039 165.327 83.1764C166.68 99.3138 173.17 112.641 179.827 112.942C186.484 113.244 190.784 100.407 189.431 84.2692Z" fill="white" stroke="#231F20" stroke-width="3" stroke-miterlimit="10"/>
<path d="M98.7125 14.8194L96.7098 15.4617C94.9816 16.016 94.0298 17.8665 94.584 19.595L100.812 39.0197C101.366 40.7482 103.217 41.7 104.945 41.1457L106.948 40.5034C108.676 39.9491 109.628 38.0986 109.073 36.3702L102.845 16.9454C102.291 15.217 100.441 14.2651 98.7125 14.8194Z" fill="#231F20"/>
<path d="M96.1032 20.2347C101.69 20.2347 106.219 15.705 106.219 10.1174C106.219 4.5297 101.69 0 96.1032 0C90.5164 0 85.9873 4.5297 85.9873 10.1174C85.9873 15.705 90.5164 20.2347 96.1032 20.2347Z" fill="#231F20"/>
<path d="M102.865 14.5624C102.865 14.5624 103.629 9.85429 101.928 6.71555C100.227 3.57682 98.5269 2.52783 98.5269 2.52783C98.5269 2.52783 101.876 3.77128 103.141 6.32664C105.075 10.235 102.865 14.5624 102.865 14.5624Z" fill="white"/>
<path d="M140.733 189.261C139.468 182.422 131.474 173.537 125.756 174.597C120.035 175.657 116.426 182.058 117.691 188.897" fill="white"/>
<path d="M140.733 189.261C139.468 182.422 131.474 173.537 125.756 174.597C120.035 175.657 116.426 182.058 117.691 188.897" stroke="#231F20" stroke-width="4" stroke-miterlimit="10"/>
<path d="M96.5034 168.949L96.9032 182.833C96.9032 182.833 109.155 190.671 116.85 189.748C124.545 188.823 125.479 184.991 125.479 184.991L123.22 166.372L96.5062 168.952L96.5034 168.949Z" fill="white" stroke="#231F20" stroke-width="4" stroke-miterlimit="10"/>
<path d="M96.2705 165.082L96.6703 178.965C96.6703 178.965 108.922 186.804 116.617 185.881C124.312 184.955 125.246 181.124 125.246 181.124L122.987 162.505L96.2732 165.085L96.2705 165.082Z" fill="#231F20"/>
<path d="M111.278 168.555C152.114 168.555 185.219 135.446 185.219 94.6029C185.219 53.7603 152.114 20.6509 111.278 20.6509C70.4407 20.6509 37.3359 53.7603 37.3359 94.6029C37.3359 135.446 70.4407 168.555 111.278 168.555Z" fill="#231F20"/>
<path d="M112.28 168.555C151.763 168.555 183.77 135.446 183.77 94.6029C183.77 53.7603 151.763 20.6509 112.28 20.6509C72.7965 20.6509 40.7891 53.7603 40.7891 94.6029C40.7891 135.446 72.7965 168.555 112.28 168.555Z" fill="white" stroke="#231F20" stroke-width="3" stroke-miterlimit="10"/>
<g opacity="0.15">
<path d="M170.458 53.6077C170.458 43.0932 144.552 34.5698 112.594 34.5698C80.6364 34.5698 54.7305 43.0932 54.7305 53.6077" fill="white"/>
<path d="M170.458 53.6077C170.458 43.0932 144.552 34.5698 112.594 34.5698C80.6364 34.5698 54.7305 43.0932 54.7305 53.6077" stroke="#231F20" stroke-width="2" stroke-miterlimit="10"/>
</g>
<g opacity="0.15">
<path d="M169.089 136.039C169.089 146.554 143.183 155.077 111.225 155.077C79.2673 155.077 53.3613 146.554 53.3613 136.039" fill="white"/>
<path d="M169.089 136.039C169.089 146.554 143.183 155.077 111.225 155.077C79.2673 155.077 53.3613 146.554 53.3613 136.039" stroke="#231F20" stroke-width="2" stroke-miterlimit="10"/>
</g>
<path d="M130.559 190.753C127.919 182.616 125.295 178.171 125.295 178.171C125.295 178.171 123.419 186.453 110.171 182.197C99.7809 178.858 88.7695 182.471 88.7695 182.471" fill="white"/>
<path d="M130.559 190.753C127.919 182.616 125.295 178.171 125.295 178.171C125.295 178.171 123.419 186.453 110.171 182.197C99.7809 178.858 88.7695 182.471 88.7695 182.471" stroke="#231F20" stroke-width="4" stroke-miterlimit="10"/>
<g opacity="0.15">
<path d="M114.947 183.644C114.947 183.644 115.695 186.681 116.651 191.466L114.947 183.644Z" fill="white"/>
<path d="M114.947 183.644C114.947 183.644 115.695 186.681 116.651 191.466" stroke="#231F20" stroke-width="2" stroke-miterlimit="10"/>
</g>
<path d="M88.8711 110.255C104.01 110.255 116.283 97.9808 116.283 82.8394C116.283 67.6979 104.01 55.4233 88.8711 55.4233C73.7318 55.4233 61.459 67.6979 61.459 82.8394C61.459 97.9808 73.7318 110.255 88.8711 110.255Z" fill="#ADDFF8" stroke="#231F20" stroke-width="3" stroke-miterlimit="10"/>
<path d="M90.7691 103.337C102.645 103.337 112.272 93.7089 112.272 81.8317C112.272 69.9545 102.645 60.3262 90.7691 60.3262C78.8936 60.3262 69.2666 69.9545 69.2666 81.8317C69.2666 93.7089 78.8936 103.337 90.7691 103.337Z" fill="white" stroke="#231F20" stroke-width="2" stroke-miterlimit="10"/>
<path d="M92.6554 94.5974C100.201 94.5974 106.318 88.4798 106.318 80.9332C106.318 73.3867 100.201 67.269 92.6554 67.269C85.11 67.269 78.9932 73.3867 78.9932 80.9332C78.9932 88.4798 85.11 94.5974 92.6554 94.5974Z" fill="#416AB2"/>
<path d="M93.869 91.9765C100.15 91.9765 105.242 86.884 105.242 80.602C105.242 74.3201 100.15 69.2275 93.869 69.2275C87.5879 69.2275 82.4961 74.3201 82.4961 80.602C82.4961 86.884 87.5879 91.9765 93.869 91.9765Z" fill="#231F20"/>
<path d="M91.426 75.7949C92.4439 75.7949 93.269 74.9696 93.269 73.9516C93.269 72.9336 92.4439 72.1084 91.426 72.1084C90.4081 72.1084 89.583 72.9336 89.583 73.9516C89.583 74.9696 90.4081 75.7949 91.426 75.7949Z" fill="white"/>
<path d="M75.8741 63.1992C75.8741 63.1992 69.1347 68.1894 67.456 77.3427C65.7774 86.4932 69.0745 92.5653 69.0745 92.5653C69.0745 92.5653 63.0252 83.5681 64.6162 76.3019C67.048 65.1904 75.8714 63.1992 75.8714 63.1992H75.8741Z" fill="white"/>
<path d="M159.577 110.329C171.178 106.081 176.362 91.1108 171.156 76.8925C165.951 62.6741 152.328 54.5916 140.727 58.8396C129.127 63.0876 123.943 78.0575 129.148 92.2758C134.353 106.494 147.977 114.577 159.577 110.329Z" fill="#ADDFF8" stroke="#231F20" stroke-width="3" stroke-miterlimit="10"/>
<path d="M155.9 103.684C164.999 100.352 169.065 88.6094 164.982 77.4563C160.899 66.3032 150.213 59.9631 141.113 63.2952C132.014 66.6274 127.948 78.37 132.031 89.5231C136.114 100.676 146.8 107.016 155.9 103.684Z" fill="white" stroke="#231F20" stroke-width="2" stroke-miterlimit="10"/>
<path d="M151.571 95.3292C157.353 93.2119 159.937 85.7509 157.343 78.6644C154.748 71.578 147.958 67.5496 142.177 69.6669C136.395 71.7841 133.811 79.2452 136.405 86.3316C139 93.4181 145.79 97.4464 151.571 95.3292Z" fill="#416AB2"/>
<path d="M149.744 92.7796C154.558 91.0171 156.709 84.8062 154.549 78.9072C152.389 73.0082 146.737 69.655 141.924 71.4175C137.111 73.1801 134.96 79.391 137.119 85.2899C139.279 91.1889 144.931 94.5421 149.744 92.7796Z" fill="#231F20"/>
<path d="M148.122 77.4707C148.902 77.1851 149.25 76.1787 148.9 75.2228C148.55 74.2669 147.634 73.7234 146.855 74.0089C146.075 74.2944 145.727 75.3008 146.077 76.2568C146.427 77.2127 147.342 77.7562 148.122 77.4707Z" fill="white"/>
<path d="M159.877 66.1353C159.877 66.1353 165.819 71.4185 167.769 80.4705C169.719 89.5224 167.317 95.2658 167.317 95.2658C167.317 95.2658 171.85 86.8246 170.086 79.6214C167.389 68.6084 159.877 66.1353 159.877 66.1353Z" fill="white"/>
<g opacity="0.15">
<path d="M104.018 168.5C112.49 168.834 120.646 136.313 122.234 95.8656C123.822 55.4181 118.241 22.3573 109.771 22.0259" fill="white"/>
<path d="M104.018 168.5C112.49 168.834 120.646 136.313 122.234 95.8656C123.822 55.4181 118.241 22.3573 109.771 22.0259" stroke="#231F20" stroke-width="2" stroke-miterlimit="10"/>
</g>
<path d="M97.6094 125.631C97.6094 125.631 98.713 129.696 103.615 130.882C108.517 132.068 125.46 132.021 125.46 132.021C125.46 132.021 133.486 131.758 136.069 130.112C138.654 128.466 139.527 126.5 139.527 126.5" fill="white"/>
<path d="M97.6094 125.631C97.6094 125.631 98.713 129.696 103.615 130.882C108.517 132.068 125.46 132.021 125.46 132.021C125.46 132.021 133.486 131.758 136.069 130.112C138.654 128.466 139.527 126.5 139.527 126.5" stroke="#231F20" stroke-width="4" stroke-miterlimit="10" stroke-linecap="round"/>
<path d="M56.6666 86.8217C58.778 70.7665 55.27 56.3628 48.8318 54.6511C42.391 52.9393 35.4599 64.5685 33.3485 80.6237C31.2371 96.6789 34.7451 111.083 41.1833 112.794C47.6242 114.506 54.5553 102.877 56.6666 86.8217Z" fill="white" stroke="#231F20" stroke-width="3" stroke-miterlimit="10"/>
<path d="M44.8174 84.1786C46.4715 71.6073 44.2752 60.4738 39.9128 59.3152C35.5504 58.1567 30.6732 67.4086 29.0192 79.98C27.3651 92.5513 29.5614 103.685 33.9238 104.843C38.2862 106.002 43.1634 96.75 44.8174 84.1786Z" fill="white" stroke="#231F20" stroke-width="3" stroke-miterlimit="10"/>
<path d="M34.4166 82.6972C35.5256 74.2752 38.4339 67.8252 41.2107 67.2199C40.6658 66.1736 40.0031 65.4999 39.2418 65.2972C36.2185 64.4947 32.7707 71.4158 31.5439 80.7608C30.3143 90.1031 31.7685 98.3306 34.7917 99.1331C35.0902 99.2125 35.3942 99.2125 35.6982 99.1468C34.0825 96.0464 33.4992 89.684 34.4193 82.6972H34.4166Z" fill="#ADDFF8"/>
<path d="M38.3711 59.2193L46.2716 54.6509" stroke="#231F20" stroke-width="4" stroke-miterlimit="10"/>
<path opacity="0.25" d="M46.3126 93.8004C44.5737 100.146 42.0406 105.323 39.628 106.898C38.9461 107.344 38.3217 107.465 37.7686 107.303C39.0255 109.921 40.9808 110.735 43.4098 109.152C48.246 105.997 53.2519 94.4331 55.1524 82.4697C52.3701 87.3203 49.3222 91.2177 46.3126 93.8004Z" fill="#ADDFF8"/>
<path d="M82.9153 186.59C82.9153 186.59 80.9463 188.666 78.2051 191.928L82.9153 186.59Z" fill="white"/>
<path d="M82.9153 186.59C82.9153 186.59 80.9463 188.666 78.2051 191.928" stroke="#231F20" stroke-width="4" stroke-miterlimit="10"/>
<path d="M103.035 189.515C104.385 182.693 100.852 176.245 95.1451 175.117C89.4381 173.989 83.7202 178.604 82.3701 185.426" fill="white"/>
<path d="M103.035 189.515C104.385 182.693 100.852 176.245 95.1451 175.117C89.4381 173.989 83.7202 178.604 82.3701 185.426" stroke="#231F20" stroke-width="4" stroke-miterlimit="10"/>
<path d="M96.9852 186.368C97.9021 181.728 95.1694 177.279 90.8814 176.431C86.5935 175.584 82.3741 178.658 81.4571 183.298C80.5402 187.938 83.2729 192.387 87.5609 193.234C91.8488 194.082 96.0682 191.008 96.9852 186.368Z" fill="white" stroke="#231F20" stroke-width="4" stroke-miterlimit="10"/>
<path d="M91.6373 187.25C92.4235 183.272 90.6985 179.58 87.7845 179.004C84.8705 178.428 81.8709 181.186 81.0847 185.164C80.2985 189.143 82.0234 192.835 84.9374 193.411C87.8515 193.987 90.8511 191.228 91.6373 187.25Z" fill="white" stroke="#231F20" stroke-width="4" stroke-miterlimit="10"/>
<path d="M146.519 192.816H60.6704" stroke="#231F20" stroke-width="10" stroke-miterlimit="10"/>
</g>
<defs>
<clipPath id="clip0_54_1611">
<rect width="192" height="198.5" fill="white"/>
</clipPath>
</defs>
</svg>
