<svg width="606" height="200" viewBox="0 0 606 200" fill="none" xmlns="http://www.w3.org/2000/svg">
<g clip-path="url(#clip0_54_1610)">
<path d="M563.999 14.2832H49.0395C28.8008 14.2832 12.394 30.6889 12.394 50.9265V156.189C12.394 176.427 28.8008 192.832 49.0395 192.832H563.999C584.238 192.832 600.644 176.427 600.644 156.189V50.9265C600.644 30.6889 584.238 14.2832 563.999 14.2832Z" fill="black" stroke="#231F20" stroke-width="10" stroke-miterlimit="10"/>
<path d="M147.393 14.2832H42.1235C21.8848 14.2832 5.47803 30.6889 5.47803 50.9265V156.189C5.47803 176.427 21.8848 192.832 42.1235 192.832H147.393C167.631 192.832 184.038 176.427 184.038 156.189V50.9265C184.038 30.6889 167.631 14.2832 147.393 14.2832Z" fill="#AEDFF8" stroke="#231F20" stroke-width="10" stroke-miterlimit="10"/>
<path d="M184.947 84.2721C183.594 68.1348 177.103 54.8074 170.444 54.5062C163.785 54.2049 159.485 67.042 160.838 83.1793C162.191 99.3167 168.683 112.644 175.341 112.945C182 113.247 186.3 100.41 184.947 84.2721Z" fill="white"/>
<path d="M94.2116 14.8204L92.2085 15.4627C90.4799 16.017 89.528 17.8675 90.0823 19.596L96.3118 39.0207C96.8661 40.7491 98.7167 41.701 100.445 41.1467L102.448 40.5044C104.177 39.9501 105.129 38.0996 104.575 36.3711L98.3451 16.9464C97.7908 15.218 95.9401 14.2661 94.2116 14.8204Z" fill="white"/>
<path d="M91.5984 20.2376C97.1864 20.2376 101.716 15.708 101.716 10.1203C101.716 4.53263 97.1864 0.00292969 91.5984 0.00292969C86.0104 0.00292969 81.4805 4.53263 81.4805 10.1203C81.4805 15.708 86.0104 20.2376 91.5984 20.2376Z" fill="white"/>
<path d="M98.3611 14.5653C98.3611 14.5653 99.1253 9.85722 97.4243 6.71848C95.7234 3.57975 94.0225 2.53076 94.0225 2.53076C94.0225 2.53076 97.3723 3.77421 98.6377 6.32956C100.571 10.2379 98.3611 14.5653 98.3611 14.5653Z" fill="white"/>
<path d="M125.14 195.663C130.861 194.605 134.627 189.034 133.551 183.22C132.476 177.406 126.966 173.551 121.245 174.609C115.524 175.667 111.759 181.238 112.834 187.052C113.91 192.866 119.419 196.721 125.14 195.663Z" fill="white"/>
<path d="M91.9985 168.952L92.3984 182.836C92.3984 182.836 104.653 190.674 112.35 189.751C120.046 188.825 120.98 184.994 120.98 184.994L118.721 166.375L92.0013 168.955L91.9985 168.952Z" fill="white"/>
<path d="M91.7681 165.085L92.168 178.968C92.168 178.968 104.422 186.807 112.119 185.884C119.816 184.958 120.75 181.127 120.75 181.127L118.49 162.508L91.7708 165.088L91.7681 165.085Z" fill="white"/>
<path d="M106.778 168.558C147.623 168.558 180.735 135.448 180.735 94.6059C180.735 53.7633 147.623 20.6538 106.778 20.6538C65.9332 20.6538 32.8218 53.7633 32.8218 94.6059C32.8218 135.448 65.9332 168.558 106.778 168.558Z" fill="white"/>
<path d="M107.778 168.558C147.269 168.558 179.283 135.448 179.283 94.6059C179.283 53.7633 147.269 20.6538 107.778 20.6538C68.2869 20.6538 36.2729 53.7633 36.2729 94.6059C36.2729 135.448 68.2869 168.558 107.778 168.558Z" fill="white"/>
<path d="M165.971 53.6106C165.971 43.0961 140.06 34.5728 108.095 34.5728C76.1309 34.5728 50.2197 43.0961 50.2197 53.6106" fill="white"/>
<path d="M164.602 136.042C164.602 146.557 138.691 155.08 106.726 155.08C74.7618 155.08 48.8506 146.557 48.8506 136.042" fill="white"/>
<path d="M84.3674 110.259C99.5098 110.259 111.785 97.9842 111.785 82.8428C111.785 67.7013 99.5098 55.4268 84.3674 55.4268C69.225 55.4268 56.9497 67.7013 56.9497 82.8428C56.9497 97.9842 69.225 110.259 84.3674 110.259Z" fill="white"/>
<path d="M86.2656 103.34C98.1436 103.34 107.773 93.7118 107.773 81.8347C107.773 69.9575 98.1436 60.3291 86.2656 60.3291C74.3877 60.3291 64.7588 69.9575 64.7588 81.8347C64.7588 93.7118 74.3877 103.34 86.2656 103.34Z" fill="white"/>
<path d="M88.1499 94.6003C95.6969 94.6003 101.815 88.4827 101.815 80.9362C101.815 73.3896 95.6969 67.272 88.1499 67.272C80.6029 67.272 74.4849 73.3896 74.4849 80.9362C74.4849 88.4827 80.6029 94.6003 88.1499 94.6003Z" fill="white"/>
<path d="M89.3659 91.9795C95.6483 91.9795 100.741 86.8869 100.741 80.605C100.741 74.323 95.6483 69.2305 89.3659 69.2305C83.0836 69.2305 77.9907 74.323 77.9907 80.605C77.9907 86.8869 83.0836 91.9795 89.3659 91.9795Z" fill="white"/>
<path d="M86.9226 75.7983C87.9404 75.7983 88.7656 74.9731 88.7656 73.9551C88.7656 72.9371 87.9404 72.1118 86.9226 72.1118C85.9047 72.1118 85.0796 72.9371 85.0796 73.9551C85.0796 74.9731 85.9047 75.7983 86.9226 75.7983Z" fill="white"/>
<path d="M71.3681 63.2021C71.3681 63.2021 64.6274 68.1924 62.9484 77.3456C61.2693 86.4962 64.5671 92.5682 64.5671 92.5682C64.5671 92.5682 58.5166 83.5711 60.108 76.3049C62.5403 65.1933 71.3654 63.2021 71.3654 63.2021H71.3681Z" fill="white"/>
<path d="M155.088 110.333C166.691 106.085 171.876 91.1152 166.67 76.8968C161.463 62.6785 147.837 54.596 136.235 58.844C124.632 63.092 119.447 78.0619 124.653 92.2802C129.859 106.499 143.486 114.581 155.088 110.333Z" fill="white"/>
<path d="M151.405 103.687C160.506 100.354 164.573 88.6118 160.489 77.4587C156.406 66.3057 145.717 59.9655 136.616 63.2977C127.515 66.6298 123.447 78.3724 127.531 89.5255C131.615 100.679 142.304 107.019 151.405 103.687Z" fill="white"/>
<path d="M147.076 95.3321C152.859 93.2149 155.443 85.7538 152.848 78.6673C150.254 71.5809 143.462 67.5526 137.679 69.6698C131.896 71.7871 129.312 79.2481 131.907 86.3346C134.502 93.421 141.293 97.4493 147.076 95.3321Z" fill="white"/>
<path d="M145.251 92.785C150.065 91.0224 152.217 84.8115 150.057 78.9126C147.897 73.0136 142.243 69.6603 137.429 71.4229C132.615 73.1854 130.463 79.3963 132.623 85.2953C134.783 91.1943 140.437 94.5475 145.251 92.785Z" fill="white"/>
<path d="M143.628 77.4751C144.407 77.1896 144.756 76.1832 144.406 75.2273C144.056 74.2714 143.14 73.7279 142.36 74.0134C141.58 74.2989 141.232 75.3052 141.582 76.2611C141.932 77.217 142.848 77.7605 143.628 77.4751Z" fill="white"/>
<path d="M155.388 66.1382C155.388 66.1382 161.331 71.4215 163.282 80.4734C165.232 89.5253 162.83 95.2687 162.83 95.2687C162.83 95.2687 167.363 86.8276 165.599 79.6243C162.901 68.6114 155.388 66.1382 155.388 66.1382Z" fill="white"/>
<path d="M99.5142 168.503C107.989 168.837 116.146 136.316 117.734 95.8686C119.323 55.421 113.741 22.3602 105.269 22.0288" fill="white"/>
<path d="M93.105 125.635C93.105 125.635 94.2088 129.699 99.1117 130.885C104.015 132.071 120.961 132.025 120.961 132.025C120.961 132.025 128.989 131.762 131.572 130.116C134.158 128.469 135.031 126.503 135.031 126.503" fill="white"/>
<path d="M52.1539 86.8247C54.2657 70.7695 50.757 56.3658 44.3175 54.654C37.8753 52.9422 30.9428 64.5714 28.8311 80.6266C26.7193 96.6818 30.228 111.086 36.6674 112.797C43.1096 114.509 50.0421 102.88 52.1539 86.8247Z" fill="white"/>
<path d="M40.3046 84.1821C41.959 71.6107 39.7623 60.4772 35.399 59.3187C31.0358 58.1601 26.1575 67.412 24.5032 79.9834C22.8488 92.5548 25.0455 103.688 29.4088 104.847C33.772 106.005 38.6502 96.7534 40.3046 84.1821Z" fill="white"/>
<path d="M29.9016 82.7001C31.0109 74.2781 33.9198 67.8281 36.6971 67.2228C36.1521 66.1766 35.4892 65.5028 34.7278 65.3001C31.7039 64.4976 28.2554 71.4187 27.0284 80.7637C25.7985 90.106 27.253 98.3335 30.2769 99.136C30.5754 99.2155 30.8794 99.2155 31.1835 99.1497C29.5674 96.0493 28.984 89.687 29.9043 82.7001H29.9016Z" fill="white"/>
<path d="M41.7972 93.8033C40.058 100.149 37.5244 105.326 35.1113 106.901C34.4292 107.347 33.8047 107.468 33.2515 107.306C34.5087 109.924 36.4643 110.738 38.8939 109.155C43.731 105.999 48.7379 94.436 50.6388 82.4727C47.856 87.3232 44.8074 91.2206 41.7972 93.8033Z" fill="white"/>
<path d="M99.0757 186.726C100.121 181.437 96.3416 176.235 90.634 175.107C84.9265 173.979 79.4522 177.352 78.4069 182.641C77.3616 187.929 81.141 193.131 86.8486 194.259C92.5561 195.387 98.0304 192.014 99.0757 186.726Z" fill="white"/>
<path d="M92.1117 188.236C93.2324 182.566 90.6641 177.283 86.3753 176.435C82.0865 175.588 77.7012 179.497 76.5805 185.167C75.4598 190.837 78.028 196.121 82.3168 196.968C86.6056 197.816 90.9909 193.907 92.1117 188.236Z" fill="white"/>
<path d="M87.1343 187.252C87.9207 183.273 86.1954 179.581 83.2808 179.005C80.3662 178.429 77.3659 181.187 76.5796 185.166C75.7932 189.144 77.5185 192.836 80.4331 193.412C83.3477 193.988 86.348 191.23 87.1343 187.252Z" fill="white"/>
<path d="M189.946 84.2721C188.593 68.1348 182.102 54.8074 175.443 54.5062C168.784 54.2049 164.484 67.042 165.837 83.1793C167.19 99.3167 173.682 112.644 180.34 112.945C186.999 113.247 191.299 100.41 189.946 84.2721Z" fill="white" stroke="#231F20" stroke-width="3" stroke-miterlimit="10"/>
<path d="M99.2096 14.8223L97.2065 15.4646C95.4779 16.0189 94.526 17.8695 95.0803 19.5979L101.31 39.0226C101.864 40.7511 103.715 41.7029 105.443 41.1487L107.446 40.5063C109.175 39.9521 110.127 38.1015 109.573 36.3731L103.343 16.9484C102.789 15.2199 100.938 14.268 99.2096 14.8223Z" fill="#231F20"/>
<path d="M96.5999 20.2376C102.188 20.2376 106.718 15.708 106.718 10.1203C106.718 4.53263 102.188 0.00292969 96.5999 0.00292969C91.0119 0.00292969 86.4819 4.53263 86.4819 10.1203C86.4819 15.708 91.0119 20.2376 96.5999 20.2376Z" fill="#231F20"/>
<path d="M103.363 14.5653C103.363 14.5653 104.127 9.85722 102.426 6.71848C100.725 3.57975 99.0239 2.53076 99.0239 2.53076C99.0239 2.53076 102.374 3.77421 103.639 6.32956C105.573 10.2379 103.363 14.5653 103.363 14.5653Z" fill="white"/>
<path d="M141.238 189.264C139.972 182.425 131.977 173.54 126.258 174.6C120.536 175.66 116.926 182.06 118.192 188.899" fill="white"/>
<path d="M141.238 189.264C139.972 182.425 131.977 173.54 126.258 174.6C120.536 175.66 116.926 182.06 118.192 188.899" stroke="#231F20" stroke-width="4" stroke-miterlimit="10"/>
<path d="M97 168.952L97.3999 182.836C97.3999 182.836 109.654 190.674 117.351 189.751C125.048 188.825 125.982 184.994 125.982 184.994L123.722 166.375L97.0027 168.955L97 168.952Z" fill="white" stroke="#231F20" stroke-width="4" stroke-miterlimit="10"/>
<path d="M96.7671 165.085L97.167 178.968C97.167 178.968 109.421 186.807 117.118 185.884C124.815 184.958 125.749 181.127 125.749 181.127L123.489 162.508L96.7698 165.088L96.7671 165.085Z" fill="#231F20"/>
<path d="M111.777 168.558C152.622 168.558 185.734 135.448 185.734 94.6059C185.734 53.7633 152.622 20.6538 111.777 20.6538C70.9323 20.6538 37.8208 53.7633 37.8208 94.6059C37.8208 135.448 70.9323 168.558 111.777 168.558Z" fill="#231F20"/>
<path d="M112.78 168.558C152.271 168.558 184.285 135.448 184.285 94.6059C184.285 53.7633 152.271 20.6538 112.78 20.6538C73.2883 20.6538 41.2744 53.7633 41.2744 94.6059C41.2744 135.448 73.2883 168.558 112.78 168.558Z" fill="white" stroke="#231F20" stroke-width="3" stroke-miterlimit="10"/>
<g opacity="0.15">
<path d="M170.97 53.6106C170.97 43.0961 145.059 34.5728 113.094 34.5728C81.13 34.5728 55.2188 43.0961 55.2188 53.6106" fill="white"/>
<path d="M170.97 53.6106C170.97 43.0961 145.059 34.5728 113.094 34.5728C81.13 34.5728 55.2188 43.0961 55.2188 53.6106" stroke="#231F20" stroke-width="2" stroke-miterlimit="10"/>
</g>
<g opacity="0.15">
<path d="M169.6 136.042C169.6 146.556 143.689 155.08 111.725 155.08C79.7603 155.08 53.8491 146.556 53.8491 136.042" fill="white"/>
<path d="M169.6 136.042C169.6 146.556 143.689 155.08 111.725 155.08C79.7603 155.08 53.8491 146.556 53.8491 136.042" stroke="#231F20" stroke-width="2" stroke-miterlimit="10"/>
</g>
<path d="M131.062 190.756C128.422 182.619 125.798 178.174 125.798 178.174C125.798 178.174 123.922 186.456 110.67 182.2C100.278 178.861 89.2646 182.474 89.2646 182.474" fill="white"/>
<path d="M131.062 190.756C128.422 182.619 125.798 178.174 125.798 178.174C125.798 178.174 123.922 186.456 110.67 182.2C100.278 178.861 89.2646 182.474 89.2646 182.474" stroke="#231F20" stroke-width="4" stroke-miterlimit="10"/>
<g opacity="0.15">
<path d="M115.447 183.646C115.447 183.646 116.195 186.684 117.151 191.469L115.447 183.646Z" fill="white"/>
<path d="M115.447 183.646C115.447 183.646 116.195 186.684 117.151 191.469" stroke="#231F20" stroke-width="2" stroke-miterlimit="10"/>
</g>
<path d="M89.3664 110.258C104.509 110.258 116.784 97.9837 116.784 82.8423C116.784 67.7008 104.509 55.4263 89.3664 55.4263C74.224 55.4263 61.9487 67.7008 61.9487 82.8423C61.9487 97.9837 74.224 110.258 89.3664 110.258Z" fill="#ADDFF8" stroke="#231F20" stroke-width="3" stroke-miterlimit="10"/>
<path d="M91.2642 103.34C103.142 103.34 112.771 93.7118 112.771 81.8347C112.771 69.9575 103.142 60.3291 91.2642 60.3291C79.3863 60.3291 69.7573 69.9575 69.7573 81.8347C69.7573 93.7118 79.3863 103.34 91.2642 103.34Z" fill="white" stroke="#231F20" stroke-width="2" stroke-miterlimit="10"/>
<path d="M93.1513 94.6003C100.698 94.6003 106.816 88.4827 106.816 80.9362C106.816 73.3896 100.698 67.272 93.1513 67.272C85.6044 67.272 79.4863 73.3896 79.4863 80.9362C79.4863 88.4827 85.6044 94.6003 93.1513 94.6003Z" fill="#416AB2"/>
<path d="M94.3649 91.9795C100.647 91.9795 105.74 86.8869 105.74 80.605C105.74 74.323 100.647 69.2305 94.3649 69.2305C88.0826 69.2305 82.9897 74.323 82.9897 80.605C82.9897 86.8869 88.0826 91.9795 94.3649 91.9795Z" fill="#231F20"/>
<path d="M91.9216 75.7978C92.9395 75.7978 93.7646 74.9726 93.7646 73.9546C93.7646 72.9366 92.9395 72.1113 91.9216 72.1113C90.9038 72.1113 90.0786 72.9366 90.0786 73.9546C90.0786 74.9726 90.9038 75.7978 91.9216 75.7978Z" fill="white"/>
<path d="M76.3667 63.2021C76.3667 63.2021 69.6259 68.1924 67.9469 77.3456C66.2679 86.4962 69.5657 92.5682 69.5657 92.5682C69.5657 92.5682 63.5152 83.5711 65.1065 76.3049C67.5388 65.1933 76.3639 63.2021 76.3639 63.2021H76.3667Z" fill="white"/>
<path d="M160.087 110.332C171.689 106.084 176.875 91.1137 171.668 76.8954C166.462 62.677 152.836 54.5945 141.233 58.8425C129.63 63.0905 124.445 78.0604 129.651 92.2788C134.858 106.497 148.484 114.58 160.087 110.332Z" fill="#ADDFF8" stroke="#231F20" stroke-width="3" stroke-miterlimit="10"/>
<path d="M156.408 103.687C165.509 100.355 169.577 88.6123 165.493 77.4592C161.409 66.3061 150.72 59.966 141.619 63.2982C132.518 66.6303 128.451 78.3729 132.535 89.526C136.619 100.679 147.307 107.019 156.408 103.687Z" fill="white" stroke="#231F20" stroke-width="2" stroke-miterlimit="10"/>
<path d="M152.079 95.3321C157.862 93.2149 160.447 85.7538 157.852 78.6674C155.257 71.5809 148.466 67.5526 142.683 69.6698C136.9 71.7871 134.315 79.2481 136.91 86.3346C139.505 93.421 146.297 97.4493 152.079 95.3321Z" fill="#416AB2"/>
<path d="M150.252 92.7825C155.066 91.02 157.218 84.8091 155.058 78.9101C152.898 73.0111 147.244 69.6579 142.43 71.4204C137.616 73.183 135.464 79.3939 137.624 85.2929C139.784 91.1918 145.438 94.5451 150.252 92.7825Z" fill="#231F20"/>
<path d="M148.629 77.4736C149.408 77.1881 149.757 76.1818 149.407 75.2259C149.057 74.2699 148.141 73.7264 147.361 74.0119C146.581 74.2974 146.233 75.3037 146.583 76.2596C146.933 77.2156 147.849 77.7591 148.629 77.4736Z" fill="white"/>
<path d="M160.387 66.1382C160.387 66.1382 166.33 71.4215 168.281 80.4734C170.231 89.5253 167.829 95.2687 167.829 95.2687C167.829 95.2687 172.362 86.8276 170.598 79.6243C167.9 68.6114 160.387 66.1382 160.387 66.1382Z" fill="white"/>
<g opacity="0.15">
<path d="M104.516 168.503C112.991 168.837 121.148 136.316 122.736 95.8686C124.325 55.421 118.743 22.3602 110.271 22.0288" fill="white"/>
<path d="M104.516 168.503C112.991 168.837 121.148 136.316 122.736 95.8686C124.325 55.421 118.743 22.3602 110.271 22.0288" stroke="#231F20" stroke-width="2" stroke-miterlimit="10"/>
</g>
<path d="M98.1064 125.634C98.1064 125.634 99.2103 129.699 104.113 130.885C109.016 132.071 125.962 132.024 125.962 132.024C125.962 132.024 133.99 131.761 136.573 130.115C139.159 128.469 140.033 126.503 140.033 126.503" fill="white"/>
<path d="M98.1064 125.634C98.1064 125.634 99.2103 129.699 104.113 130.885C109.016 132.071 125.962 132.024 125.962 132.024C125.962 132.024 133.99 131.761 136.573 130.115C139.159 128.469 140.033 126.503 140.033 126.503" stroke="#231F20" stroke-width="4" stroke-miterlimit="10" stroke-linecap="round"/>
<path d="M57.1553 86.8247C59.2671 70.7695 55.7584 56.3658 49.319 54.654C42.8768 52.9422 35.9443 64.5714 33.8325 80.6266C31.7207 96.6818 35.2294 111.086 41.6689 112.797C48.1111 114.509 55.0436 102.88 57.1553 86.8247Z" fill="white" stroke="#231F20" stroke-width="3" stroke-miterlimit="10"/>
<path d="M45.3036 84.1816C46.958 71.6102 44.7613 60.4767 40.398 59.3182C36.0348 58.1596 31.1566 67.4115 29.5022 79.9829C27.8478 92.5543 30.0445 103.688 34.4078 104.846C38.7711 106.005 43.6493 96.7529 45.3036 84.1816Z" fill="white" stroke="#231F20" stroke-width="3" stroke-miterlimit="10"/>
<path d="M34.9006 82.7001C36.0099 74.2781 38.9188 67.8281 41.6962 67.2228C41.1511 66.1766 40.4882 65.5028 39.7268 65.3001C36.7029 64.4976 33.2545 71.4187 32.0274 80.7637C30.7976 90.106 32.252 98.3335 35.2759 99.136C35.5744 99.2155 35.8785 99.2155 36.1825 99.1497C34.5665 96.0493 33.9831 89.687 34.9034 82.7001H34.9006Z" fill="#ADDFF8"/>
<path d="M38.856 59.2222L46.7581 54.6538" stroke="#231F20" stroke-width="4" stroke-miterlimit="10"/>
<path opacity="0.25" d="M46.7992 93.8033C45.0599 100.149 42.5263 105.326 40.1132 106.901C39.4312 107.347 38.8067 107.468 38.2534 107.306C39.5106 109.924 41.4663 110.738 43.8958 109.155C48.7329 105.999 53.7399 94.436 55.6408 82.4727C52.8579 87.3232 49.8094 91.2206 46.7992 93.8033Z" fill="#ADDFF8"/>
<path d="M83.4079 186.593C83.4079 186.593 81.439 188.669 78.6978 191.931L83.4079 186.593Z" fill="white"/>
<path d="M83.4079 186.593C83.4079 186.593 81.439 188.669 78.6978 191.931" stroke="#231F20" stroke-width="4" stroke-miterlimit="10"/>
<path d="M103.532 189.518C104.883 182.696 101.349 176.248 95.6413 175.12C89.9332 173.992 84.2141 178.607 82.8638 185.429" fill="white"/>
<path d="M103.532 189.518C104.883 182.696 101.349 176.248 95.6413 175.12C89.9332 173.992 84.2141 178.607 82.8638 185.429" stroke="#231F20" stroke-width="4" stroke-miterlimit="10"/>
<path d="M97.4818 186.371C98.3989 181.73 95.6656 177.282 91.3768 176.434C87.088 175.587 82.8678 178.661 81.9506 183.301C81.0335 187.941 83.7668 192.39 88.0556 193.237C92.3444 194.085 96.5647 191.011 97.4818 186.371Z" fill="white" stroke="#231F20" stroke-width="4" stroke-miterlimit="10"/>
<path d="M92.1329 187.253C92.9192 183.275 91.1939 179.583 88.2793 179.006C85.3647 178.43 82.3645 181.189 81.5781 185.167C80.7918 189.145 82.5171 192.838 85.4317 193.414C88.3463 193.99 91.3465 191.231 92.1329 187.253Z" fill="white" stroke="#231F20" stroke-width="4" stroke-miterlimit="10"/>
<path d="M147.025 192.819H61.1597" stroke="#231F20" stroke-width="10" stroke-miterlimit="10"/>
<path d="M247.123 134.977C247.123 149.879 245.327 162.447 225.397 162.447C222.883 162.447 219.114 162.089 216.6 161.73V147.904C218.035 148.085 219.832 148.263 222.346 148.263C228.81 148.263 231.144 146.466 231.144 136.951V41.0747H247.123V134.977Z" fill="white"/>
<path d="M278.724 41.0747V133.183C278.724 142.339 281.775 148.085 289.677 148.085C297.579 148.085 300.63 142.161 300.63 133.183V41.0747H316.61V132.824C316.61 151.497 308.171 162.628 289.496 162.628C270.822 162.628 262.563 152.752 262.563 133.002V41.0747H278.724Z" fill="white"/>
<path d="M332.948 161.012V41.0747H351.801L369.397 107.506C371.911 116.484 373.168 123.665 374.064 128.872H374.423C373.524 113.43 373.524 96.5531 373.524 76.9839V41.0747H388.427V161.012H370.292L350.541 85.2444C348.925 78.9614 348.027 73.9328 347.309 70.3422H347.128C347.846 84.8856 348.027 102.302 348.027 124.027V161.012H332.943H332.948Z" fill="white"/>
<path d="M421.471 41.0747V161.012H405.311V41.0747H421.471Z" fill="white"/>
<path d="M491.316 71.958V129.773C491.316 152.037 481.979 162.631 462.767 162.631C443.555 162.631 435.653 151.319 435.653 129.953V71.78C435.653 49.8746 446.248 39.4614 463.843 39.4614C481.439 39.4614 491.316 50.5922 491.316 71.958ZM452.172 70.5201V131.745C452.172 143.237 456.303 148.085 463.485 148.085C471.206 148.085 474.978 143.418 474.978 131.386V70.5201C474.978 59.5674 471.387 54.002 463.485 54.002C455.582 54.002 452.172 59.2086 452.172 70.5201Z" fill="white"/>
<path d="M505.682 41.0747H529.383C547.518 41.0747 557.395 48.6148 557.395 69.4439V74.2916C557.395 91.8861 550.753 97.4542 545.185 99.4289C552.547 102.661 556.316 107.867 556.316 124.027C556.316 134.262 556.135 153.653 557.393 161.012H541.95C540.334 153.65 540.693 133.722 540.693 125.103C540.693 110.201 538.537 106.429 527.406 106.429H521.84V161.012H505.68V41.0747H505.682ZM521.843 92.9652H527.589C538.003 92.9652 541.416 88.1174 541.416 75.19V70.523C541.416 60.4686 538.901 54.5444 527.77 54.5444H521.845V92.9679L521.843 92.9652Z" fill="white"/>
</g>
<defs>
<clipPath id="clip0_54_1610">
<rect width="606" height="200" fill="white"/>
</clipPath>
</defs>
</svg>
