<svg width="200" height="67" viewBox="0 0 200 67" fill="none" xmlns="http://www.w3.org/2000/svg">
<g clip-path="url(#clip0_55_1442)">
<g clip-path="url(#clip1_55_1442)">
<path d="M183.3 5.14258H15.9381C9.36051 5.14258 4.02832 10.4744 4.02832 17.0516V51.262C4.02832 57.8392 9.36051 63.1711 15.9381 63.1711H183.3C189.878 63.1711 195.21 57.8392 195.21 51.262V17.0516C195.21 10.4744 189.878 5.14258 183.3 5.14258Z" fill="#FFFDFA" stroke="#AEDFF8" stroke-width="3" stroke-miterlimit="10"/>
<path d="M47.9025 5.14258H13.6901C7.11246 5.14258 1.78027 10.4744 1.78027 17.0516V51.262C1.78027 57.8392 7.11246 63.1711 13.6901 63.1711H47.9025C54.4801 63.1711 59.8123 57.8392 59.8123 51.262V17.0516C59.8123 10.4744 54.4801 5.14258 47.9025 5.14258Z" fill="#06173F" stroke="#AEDFF8" stroke-width="3" stroke-miterlimit="10"/>
<path d="M60.1082 27.889C59.6684 22.6444 57.5587 18.313 55.3946 18.2151C53.2306 18.1172 51.833 22.2892 52.2728 27.5338C52.7125 32.7785 54.8223 37.1099 56.9863 37.2078C59.1503 37.3057 60.5479 33.1337 60.1082 27.889Z" fill="white"/>
<path d="M30.6189 5.31712L29.9679 5.52588C29.4061 5.70602 29.0967 6.30744 29.2769 6.86919L31.3015 13.1822C31.4816 13.744 32.0831 14.0533 32.6449 13.8732L33.2959 13.6644C33.8576 13.4843 34.167 12.8829 33.9869 12.3211L31.9623 6.00809C31.7821 5.44634 31.1807 5.13698 30.6189 5.31712Z" fill="white"/>
<path d="M29.7698 7.07775C31.5859 7.07775 33.0581 5.6056 33.0581 3.78961C33.0581 1.97362 31.5859 0.501465 29.7698 0.501465C27.9537 0.501465 26.4814 1.97362 26.4814 3.78961C26.4814 5.6056 27.9537 7.07775 29.7698 7.07775Z" fill="white"/>
<path d="M31.9677 5.23448C31.9677 5.23448 32.216 3.70434 31.6632 2.68425C31.1104 1.66416 30.5576 1.32324 30.5576 1.32324C30.5576 1.32324 31.6463 1.72736 32.0576 2.55785C32.686 3.82807 31.9677 5.23448 31.9677 5.23448Z" fill="white"/>
<path d="M40.6709 64.091C42.5302 63.7471 43.7541 61.9365 43.4046 60.047C43.055 58.1575 41.2644 56.9045 39.4051 57.2484C37.5458 57.5923 36.3219 59.4029 36.6715 61.2924C37.021 63.1819 38.8116 64.4349 40.6709 64.091Z" fill="white"/>
<path d="M29.8999 55.4099L30.0299 59.9219C30.0299 59.9219 34.0126 62.4695 36.514 62.1695C39.0154 61.8687 39.3189 60.6234 39.3189 60.6234L38.5845 54.5723L29.9008 55.4108L29.8999 55.4099Z" fill="white"/>
<path d="M29.8247 54.153L29.9547 58.6651C29.9547 58.6651 33.9374 61.2127 36.4388 60.9127C38.9402 60.6118 39.2437 59.3665 39.2437 59.3665L38.5093 53.3154L29.8256 54.1539L29.8247 54.153Z" fill="white"/>
<path d="M34.7034 55.2817C47.978 55.2817 58.7392 44.5211 58.7392 31.2473C58.7392 17.9735 47.978 7.21289 34.7034 7.21289C21.4287 7.21289 10.6675 17.9735 10.6675 31.2473C10.6675 44.5211 21.4287 55.2817 34.7034 55.2817Z" fill="white"/>
<path d="M35.0282 55.2817C47.8628 55.2817 58.2674 44.5211 58.2674 31.2473C58.2674 17.9735 47.8628 7.21289 35.0282 7.21289C22.1936 7.21289 11.7891 17.9735 11.7891 31.2473C11.7891 44.5211 22.1936 55.2817 35.0282 55.2817Z" fill="white"/>
<path d="M53.941 17.9241C53.941 14.5069 45.5198 11.7368 35.1314 11.7368C24.7429 11.7368 16.3218 14.5069 16.3218 17.9241" fill="white"/>
<path d="M53.4957 44.7144C53.4957 48.1316 45.0745 50.9017 34.6861 50.9017C24.2976 50.9017 15.8765 48.1316 15.8765 44.7144" fill="white"/>
<path d="M27.4195 36.3346C32.3408 36.3346 36.3303 32.3453 36.3303 27.4244C36.3303 22.5034 32.3408 18.5142 27.4195 18.5142C22.4983 18.5142 18.5088 22.5034 18.5088 27.4244C18.5088 32.3453 22.4983 36.3346 27.4195 36.3346Z" fill="white"/>
<path d="M28.0366 34.086C31.8969 34.086 35.0263 30.9568 35.0263 27.0967C35.0263 23.2366 31.8969 20.1074 28.0366 20.1074C24.1763 20.1074 21.0469 23.2366 21.0469 27.0967C21.0469 30.9568 24.1763 34.086 28.0366 34.086Z" fill="white"/>
<path d="M28.6491 31.2455C31.1019 31.2455 33.0903 29.2573 33.0903 26.8046C33.0903 24.352 31.1019 22.3638 28.6491 22.3638C26.1964 22.3638 24.208 24.352 24.208 26.8046C24.208 29.2573 26.1964 31.2455 28.6491 31.2455Z" fill="white"/>
<path d="M29.0441 30.3939C31.0859 30.3939 32.741 28.7388 32.741 26.6972C32.741 24.6556 31.0859 23.0005 29.0441 23.0005C27.0023 23.0005 25.3472 24.6556 25.3472 26.6972C25.3472 28.7388 27.0023 30.3939 29.0441 30.3939Z" fill="white"/>
<path d="M28.2499 25.1351C28.5807 25.1351 28.8488 24.8669 28.8488 24.5361C28.8488 24.2052 28.5807 23.937 28.2499 23.937C27.919 23.937 27.6509 24.2052 27.6509 24.5361C27.6509 24.8669 27.919 25.1351 28.2499 25.1351Z" fill="white"/>
<path d="M23.195 21.041C23.195 21.041 21.0042 22.6628 20.4585 25.6376C19.9128 28.6116 20.9846 30.585 20.9846 30.585C20.9846 30.585 19.0182 27.6609 19.5354 25.2994C20.3259 21.6881 23.1941 21.041 23.1941 21.041H23.195Z" fill="white"/>
<path d="M50.4039 36.3587C54.1748 34.9781 55.86 30.1129 54.1679 25.4919C52.4759 20.8709 48.0473 18.2441 44.2765 19.6247C40.5056 21.0053 38.8204 25.8705 40.5125 30.4915C42.2045 35.1125 46.6331 37.7393 50.4039 36.3587Z" fill="white"/>
<path d="M49.2071 34.1987C52.165 33.1158 53.4868 29.2995 52.1596 25.6747C50.8323 22.0499 47.3585 19.9894 44.4006 21.0724C41.4428 22.1553 40.1209 25.9716 41.4482 29.5964C42.7754 33.2212 46.2492 35.2817 49.2071 34.1987Z" fill="white"/>
<path d="M47.7997 31.4835C49.6791 30.7954 50.5191 28.3705 49.6758 26.0674C48.8324 23.7643 46.6252 22.4551 44.7458 23.1432C42.8664 23.8313 42.0264 26.2562 42.8697 28.5593C43.7131 30.8624 45.9203 32.1716 47.7997 31.4835Z" fill="white"/>
<path d="M47.2071 30.6555C48.7717 30.0827 49.471 28.0641 48.7689 26.1469C48.0669 24.2298 46.2295 23.14 44.6649 23.7128C43.1004 24.2856 42.4011 26.3042 43.1031 28.2213C43.8051 30.1385 45.6426 31.2283 47.2071 30.6555Z" fill="white"/>
<path d="M46.6794 25.6797C46.9328 25.5869 47.046 25.2599 46.9322 24.9492C46.8185 24.6385 46.5208 24.4619 46.2674 24.5547C46.014 24.6474 45.9008 24.9745 46.0146 25.2852C46.1283 25.5959 46.426 25.7725 46.6794 25.6797Z" fill="white"/>
<path d="M50.501 21.9956C50.501 21.9956 52.4327 23.7127 53.0665 26.6545C53.7003 29.5964 52.9196 31.463 52.9196 31.463C52.9196 31.463 54.3929 28.7197 53.8196 26.3786C52.9428 22.7994 50.501 21.9956 50.501 21.9956Z" fill="white"/>
<path d="M32.3423 55.2638C35.0965 55.3724 37.7475 44.803 38.2638 31.6576C38.7801 18.5121 36.9659 7.76737 34.2126 7.65967" fill="white"/>
<path d="M30.2593 41.3315C30.2593 41.3315 30.618 42.6525 32.2115 43.0379C33.8049 43.4234 39.3125 43.4082 39.3125 43.4082C39.3125 43.4082 41.9216 43.3228 42.761 42.7878C43.6014 42.2528 43.8853 41.6137 43.8853 41.6137" fill="white"/>
<path d="M16.95 28.7188C17.6363 23.5008 16.496 18.8196 14.4031 18.2633C12.3094 17.707 10.0564 21.4865 9.37004 26.7044C8.68371 31.9224 9.82404 36.6036 11.9169 37.1599C14.0106 37.7162 16.2636 33.9367 16.95 28.7188Z" fill="white"/>
<path d="M13.0992 27.8595C13.6369 23.7738 12.923 20.1554 11.5049 19.7789C10.0868 19.4024 8.50142 22.4092 7.96375 26.4949C7.42608 30.5806 8.14001 34.199 9.55807 34.5755C10.9761 34.9521 12.5616 31.9452 13.0992 27.8595Z" fill="white"/>
<path d="M9.71842 27.3782C10.0789 24.6411 11.0243 22.5448 11.927 22.3481C11.7498 22.0081 11.5344 21.7891 11.2869 21.7232C10.3042 21.4624 9.18342 23.7118 8.78462 26.7489C8.38493 29.7851 8.85762 32.4591 9.84038 32.7199C9.93741 32.7457 10.0362 32.7457 10.135 32.7243C9.60982 31.7167 9.42021 29.6489 9.71931 27.3782H9.71842Z" fill="white"/>
<path d="M13.5845 30.9867C13.0192 33.0491 12.1958 34.7314 11.4116 35.2433C11.1899 35.3884 10.9869 35.4275 10.8071 35.375C11.2157 36.226 11.8513 36.4903 12.6409 35.9759C14.213 34.9504 15.8402 31.1923 16.458 27.3042C15.5536 28.8806 14.5628 30.1473 13.5845 30.9867Z" fill="white"/>
<path d="M32.1997 61.1866C32.5394 59.4677 31.3111 57.7772 29.4561 57.4106C27.6012 57.044 25.8221 58.1402 25.4823 59.859C25.1426 61.5778 26.3709 63.2684 28.2259 63.635C30.0808 64.0016 31.86 62.9054 32.1997 61.1866Z" fill="white"/>
<path d="M29.9366 61.6775C30.3009 59.8347 29.4662 58.1176 28.0723 57.8421C26.6784 57.5666 25.2532 58.8372 24.889 60.68C24.5248 62.5227 25.3594 64.2399 26.7533 64.5154C28.1472 64.7909 29.5724 63.5203 29.9366 61.6775Z" fill="white"/>
<path d="M28.3188 61.3573C28.5744 60.0643 28.0137 58.8644 27.0664 58.6772C26.1192 58.49 25.1441 59.3864 24.8885 60.6794C24.633 61.9723 25.1937 63.1723 26.1409 63.3595C27.0882 63.5467 28.0632 62.6503 28.3188 61.3573Z" fill="white"/>
<path d="M61.7327 27.889C61.2929 22.6444 59.1832 18.313 57.0192 18.2151C54.8551 18.1172 53.4575 22.2892 53.8973 27.5338C54.337 32.7785 56.4468 37.1099 58.6108 37.2078C60.7748 37.3057 62.1724 33.1337 61.7327 27.889Z" fill="white" stroke="#231F20" stroke-miterlimit="10"/>
<path d="M32.2429 5.31761L31.5919 5.52636C31.0301 5.70651 30.7207 6.30793 30.9009 6.86968L32.9255 13.1827C33.1056 13.7445 33.7071 14.0538 34.2689 13.8737L34.9199 13.6649C35.4817 13.4848 35.791 12.8834 35.6109 12.3216L33.5863 6.00857C33.4062 5.44682 32.8047 5.13747 32.2429 5.31761Z" fill="#231F20"/>
<path d="M31.3948 7.07775C33.2109 7.07775 34.6831 5.6056 34.6831 3.78961C34.6831 1.97362 33.2109 0.501465 31.3948 0.501465C29.5787 0.501465 28.1064 1.97362 28.1064 3.78961C28.1064 5.6056 29.5787 7.07775 31.3948 7.07775Z" fill="#231F20"/>
<path d="M33.5927 5.23448C33.5927 5.23448 33.841 3.70434 33.2882 2.68425C32.7354 1.66416 32.1826 1.32324 32.1826 1.32324C32.1826 1.32324 33.2713 1.72736 33.6826 2.55785C34.311 3.82807 33.5927 5.23448 33.5927 5.23448Z" fill="white"/>
<path d="M45.9022 62.0112C45.491 59.7885 42.8925 56.901 41.0338 57.2454C39.1742 57.5899 38.001 59.6702 38.4122 61.8928" fill="white"/>
<path d="M45.9022 62.0112C45.491 59.7885 42.8925 56.901 41.0338 57.2454C39.1742 57.5899 38.001 59.6702 38.4122 61.8928" stroke="#231F20" stroke-miterlimit="10"/>
<path d="M31.5249 55.4099L31.6549 59.9219C31.6549 59.9219 35.6376 62.4695 38.139 62.1695C40.6404 61.8687 40.9439 60.6234 40.9439 60.6234L40.2095 54.5723L31.5258 55.4108L31.5249 55.4099Z" fill="white" stroke="#231F20" stroke-miterlimit="10"/>
<path d="M31.4492 54.153L31.5792 58.6651C31.5792 58.6651 35.5619 61.2127 38.0633 60.9127C40.5647 60.6118 40.8683 59.3665 40.8683 59.3665L40.1339 53.3154L31.4501 54.1539L31.4492 54.153Z" fill="#231F20"/>
<path d="M36.3274 55.2817C49.602 55.2817 60.3632 44.5211 60.3632 31.2473C60.3632 17.9735 49.602 7.21289 36.3274 7.21289C23.0527 7.21289 12.2915 17.9735 12.2915 31.2473C12.2915 44.5211 23.0527 55.2817 36.3274 55.2817Z" fill="#231F20"/>
<path d="M36.6532 55.2817C49.4878 55.2817 59.8924 44.5211 59.8924 31.2473C59.8924 17.9735 49.4878 7.21289 36.6532 7.21289C23.8186 7.21289 13.4141 17.9735 13.4141 31.2473C13.4141 44.5211 23.8186 55.2817 36.6532 55.2817Z" fill="white" stroke="#231F20" stroke-width="1.5" stroke-miterlimit="10"/>
<g opacity="0.15">
<path d="M55.5655 17.9241C55.5655 14.5069 47.1443 11.7368 36.7559 11.7368C26.3674 11.7368 17.9463 14.5069 17.9463 17.9241" fill="white"/>
<path d="M55.5655 17.9241C55.5655 14.5069 47.1443 11.7368 36.7559 11.7368C26.3674 11.7368 17.9463 14.5069 17.9463 17.9241" stroke="#231F20" stroke-miterlimit="10"/>
</g>
<g opacity="0.15">
<path d="M55.1202 44.7144C55.1202 48.1316 46.699 50.9017 36.3106 50.9017C25.9221 50.9017 17.501 48.1316 17.501 44.7144" fill="white"/>
<path d="M55.1202 44.7144C55.1202 48.1316 46.699 50.9017 36.3106 50.9017C25.9221 50.9017 17.501 48.1316 17.501 44.7144" stroke="#231F20" stroke-miterlimit="10"/>
</g>
<g opacity="0.15">
<path d="M37.5205 60.1855C37.5205 60.1855 37.7635 61.1727 38.0741 62.7278L37.5205 60.1855Z" fill="white"/>
<path d="M37.5205 60.1855C37.5205 60.1855 37.7635 61.1727 38.0741 62.7278" stroke="#231F20" stroke-width="2" stroke-miterlimit="10"/>
</g>
<path d="M29.044 36.3346C33.9653 36.3346 37.9548 32.3453 37.9548 27.4244C37.9548 22.5034 33.9653 18.5142 29.044 18.5142C24.1228 18.5142 20.1333 22.5034 20.1333 27.4244C20.1333 32.3453 24.1228 36.3346 29.044 36.3346Z" fill="#ADDFF8" stroke="#231F20" stroke-miterlimit="10"/>
<path d="M29.6611 34.086C33.5214 34.086 36.6508 30.9568 36.6508 27.0967C36.6508 23.2366 33.5214 20.1074 29.6611 20.1074C25.8008 20.1074 22.6714 23.2366 22.6714 27.0967C22.6714 30.9568 25.8008 34.086 29.6611 34.086Z" fill="white" stroke="#231F20" stroke-width="0.5" stroke-miterlimit="10"/>
<path d="M30.2741 31.2455C32.7269 31.2455 34.7153 29.2573 34.7153 26.8046C34.7153 24.352 32.7269 22.3638 30.2741 22.3638C27.8214 22.3638 25.833 24.352 25.833 26.8046C25.833 29.2573 27.8214 31.2455 30.2741 31.2455Z" fill="#416AB2"/>
<path d="M30.6686 30.3939C32.7104 30.3939 34.3656 28.7388 34.3656 26.6972C34.3656 24.6556 32.7104 23.0005 30.6686 23.0005C28.6269 23.0005 26.9717 24.6556 26.9717 26.6972C26.9717 28.7388 28.6269 30.3939 30.6686 30.3939Z" fill="#231F20"/>
<path d="M29.8744 25.1346C30.2052 25.1346 30.4733 24.8664 30.4733 24.5356C30.4733 24.2047 30.2052 23.9365 29.8744 23.9365C29.5436 23.9365 29.2754 24.2047 29.2754 24.5356C29.2754 24.8664 29.5436 25.1346 29.8744 25.1346Z" fill="white"/>
<path d="M24.8195 21.041C24.8195 21.041 22.6287 22.6628 22.083 25.6376C21.5374 28.6116 22.6091 30.585 22.6091 30.585C22.6091 30.585 20.6427 27.6609 21.1599 25.2994C21.9504 21.6881 24.8186 21.041 24.8186 21.041H24.8195Z" fill="white"/>
<path d="M52.0279 36.3582C55.7988 34.9776 57.484 30.1124 55.792 25.4914C54.0999 20.8705 49.6714 18.2436 45.9005 19.6242C42.1296 21.0048 40.4444 25.8701 42.1365 30.491C43.8285 35.112 48.2571 37.7388 52.0279 36.3582Z" fill="#ADDFF8" stroke="#231F20" stroke-miterlimit="10"/>
<path d="M50.8326 34.1987C53.7904 33.1158 55.1123 29.2995 53.785 25.6747C52.4578 22.0499 48.984 19.9894 46.0261 21.0724C43.0682 22.1553 41.7464 25.9716 43.0736 29.5964C44.4009 33.2212 47.8747 35.2817 50.8326 34.1987Z" fill="white" stroke="#231F20" stroke-width="0.5" stroke-miterlimit="10"/>
<path d="M49.4257 31.4835C51.3051 30.7954 52.145 28.3705 51.3017 26.0674C50.4584 23.7643 48.2512 22.4551 46.3718 23.1432C44.4923 23.8313 43.6524 26.2562 44.4957 28.5593C45.339 30.8624 47.5463 32.1716 49.4257 31.4835Z" fill="#416AB2"/>
<path d="M48.8321 30.655C50.3967 30.0822 51.096 28.0636 50.3939 26.1465C49.6919 24.2293 47.8545 23.1395 46.2899 23.7123C44.7254 24.2851 44.0261 26.3037 44.7281 28.2209C45.4301 30.138 47.2676 31.2278 48.8321 30.655Z" fill="#231F20"/>
<path d="M48.3044 25.6792C48.5578 25.5864 48.671 25.2594 48.5572 24.9487C48.4435 24.638 48.1458 24.4614 47.8924 24.5542C47.639 24.647 47.5258 24.974 47.6396 25.2847C47.7533 25.5954 48.051 25.772 48.3044 25.6792Z" fill="white"/>
<path d="M52.1255 21.9956C52.1255 21.9956 54.0572 23.7127 54.691 26.6545C55.3248 29.5964 54.5441 31.463 54.5441 31.463C54.5441 31.463 56.0174 28.7197 55.4441 26.3786C54.5673 22.7994 52.1255 21.9956 52.1255 21.9956Z" fill="white"/>
<g opacity="0.15">
<path d="M33.9678 55.2638C36.722 55.3724 39.373 44.803 39.8893 31.6576C40.4056 18.5121 38.5914 7.76737 35.8381 7.65967" fill="white"/>
<path d="M33.9678 55.2638C36.722 55.3724 39.373 44.803 39.8893 31.6576C40.4056 18.5121 38.5914 7.76737 35.8381 7.65967" stroke="#231F20" stroke-miterlimit="10"/>
</g>
<path d="M31.8848 41.3315C31.8848 41.3315 32.2435 42.6525 33.8369 43.0379C35.4304 43.4234 40.9379 43.4082 40.9379 43.4082C40.9379 43.4082 43.5471 43.3228 44.3865 42.7878C45.2268 42.2528 45.5108 41.6137 45.5108 41.6137" fill="white"/>
<path d="M31.8848 41.3315C31.8848 41.3315 32.2435 42.6525 33.8369 43.0379C35.4304 43.4234 40.9379 43.4082 40.9379 43.4082C40.9379 43.4082 43.5471 43.3228 44.3865 42.7878C45.2268 42.2528 45.5108 41.6137 45.5108 41.6137" stroke="#231F20" stroke-miterlimit="10" stroke-linecap="round"/>
<path d="M18.5755 28.7183C19.2618 23.5004 18.1215 18.8192 16.0286 18.2628C13.9349 17.7065 11.6819 21.486 10.9955 26.7039C10.3092 31.9219 11.4495 36.6031 13.5424 37.1594C15.6361 37.7157 17.8891 33.9362 18.5755 28.7183Z" fill="white" stroke="#231F20" stroke-miterlimit="10"/>
<path d="M14.7237 27.8595C15.2614 23.7738 14.5475 20.1554 13.1294 19.7789C11.7114 19.4024 10.1259 22.4092 9.58826 26.4949C9.05059 30.5806 9.76452 34.199 11.1826 34.5755C12.6006 34.9521 14.1861 31.9452 14.7237 27.8595Z" fill="white" stroke="#231F20" stroke-miterlimit="10"/>
<path d="M11.3429 27.3782C11.7035 24.6411 12.6488 22.5448 13.5515 22.3481C13.3743 22.0081 13.1589 21.7891 12.9114 21.7232C11.9287 21.4624 10.8079 23.7118 10.4091 26.7489C10.0094 29.7851 10.4821 32.4591 11.4649 32.7199C11.5619 32.7457 11.6607 32.7457 11.7595 32.7243C11.2343 31.7167 11.0447 29.6489 11.3438 27.3782H11.3429Z" fill="#ADDFF8"/>
<path d="M12.6279 19.7479L15.1961 18.2632" stroke="#231F20" stroke-miterlimit="10"/>
<path opacity="0.25" d="M15.2095 30.9867C14.6442 33.0491 13.8208 34.7314 13.0366 35.2433C12.8149 35.3884 12.6119 35.4275 12.4321 35.375C12.8407 36.226 13.4763 36.4903 14.2659 35.9759C15.838 34.9504 17.4652 31.1923 18.083 27.3042C17.1786 28.8806 16.1878 30.1473 15.2095 30.9867Z" fill="#ADDFF8"/>
<path d="M27.1075 61.1431C27.1075 61.1431 26.4676 61.8178 25.5767 62.8779L27.1075 61.1431Z" fill="white"/>
<path d="M27.1075 61.1431C27.1075 61.1431 26.4676 61.8178 25.5767 62.8779" stroke="#231F20" stroke-miterlimit="10"/>
<path d="M33.648 62.094C34.0869 59.8767 32.9385 57.7813 31.0834 57.4146C29.2282 57.0478 27.3695 58.5477 26.9307 60.765" fill="white"/>
<path d="M33.648 62.094C34.0869 59.8767 32.9385 57.7813 31.0834 57.4146C29.2282 57.0478 27.3695 58.5477 26.9307 60.765" stroke="#231F20" stroke-miterlimit="10"/>
<path d="M31.6816 61.0708C31.9796 59.5628 31.0913 58.1169 29.6974 57.8415C28.3036 57.566 26.932 58.5652 26.6339 60.0732C26.3359 61.5812 27.2242 63.027 28.618 63.3025C30.0119 63.578 31.3835 62.5788 31.6816 61.0708Z" fill="white" stroke="#231F20" stroke-miterlimit="10"/>
<path d="M29.9433 61.3578C30.1989 60.0648 29.6382 58.8649 28.6909 58.6777C27.7437 58.4905 26.7686 59.3869 26.513 60.6798C26.2575 61.9728 26.8182 63.1728 27.7654 63.36C28.7127 63.5472 29.6878 62.6508 29.9433 61.3578Z" fill="white" stroke="#231F20" stroke-miterlimit="10"/>
<path d="M47.7833 63.1665H19.877" stroke="#AEDFF8" stroke-width="3" stroke-miterlimit="10"/>
<path d="M80.3152 44.3682C80.3152 49.2114 79.7313 53.2962 73.2543 53.2962C72.4371 53.2962 71.2122 53.1796 70.395 53.063V48.5696C70.8615 48.6284 71.4454 48.6862 72.2626 48.6862C74.3635 48.6862 75.1219 48.1023 75.1219 45.01V13.8501H80.3152V44.3682Z" fill="#070606"/>
<path d="M90.5851 13.8501V43.7852C90.5851 46.7609 91.5768 48.6284 94.1449 48.6284C96.7131 48.6284 97.7048 46.703 97.7048 43.7852V13.8501H102.898V43.6686C102.898 49.7375 100.155 53.355 94.0862 53.355C88.0169 53.355 85.333 50.1452 85.333 43.7264V13.8501H90.5851Z" fill="#070606"/>
<path d="M108.208 52.8298V13.8501H114.335L120.054 35.4402C120.871 38.3581 121.28 40.692 121.571 42.3841H121.687C121.396 37.3656 121.396 31.8806 121.396 25.5206V13.8501H126.239V52.8298H120.345L113.926 28.2052C113.401 26.1633 113.109 24.529 112.876 23.362H112.817C113.05 28.0886 113.109 33.749 113.109 40.8095V52.8298H108.207H108.208Z" fill="#070606"/>
<path d="M136.978 13.8501V52.8298H131.726V13.8501H136.978Z" fill="#070606"/>
<path d="M159.678 23.8871V42.6768C159.678 49.9127 156.643 53.3557 150.399 53.3557C144.156 53.3557 141.587 49.6795 141.587 42.7356V23.8292C141.587 16.71 145.031 13.3257 150.749 13.3257C156.468 13.3257 159.678 16.9432 159.678 23.8871ZM146.956 23.4198V43.3177C146.956 47.0527 148.299 48.6283 150.633 48.6283C153.142 48.6283 154.368 47.1115 154.368 43.2011V23.4198C154.368 19.8601 153.201 18.0514 150.633 18.0514C148.064 18.0514 146.956 19.7435 146.956 23.4198Z" fill="#070606"/>
<path d="M164.347 13.8501H172.05C177.944 13.8501 181.154 16.3006 181.154 23.0701V24.6456C181.154 30.3638 178.995 32.1734 177.185 32.8152C179.578 33.8656 180.803 35.5577 180.803 40.8095C180.803 44.1359 180.744 50.438 181.153 52.8298H176.134C175.609 50.4371 175.725 43.9605 175.725 41.1593C175.725 36.3161 175.025 35.0904 171.407 35.0904H169.598V52.8298H164.346V13.8501H164.347ZM169.599 30.7145H171.467C174.851 30.7145 175.96 29.139 175.96 24.9376V23.4208C175.96 20.1531 175.143 18.2278 171.526 18.2278H169.6V30.7154L169.599 30.7145Z" fill="#070606"/>
</g>
</g>
<defs>
<clipPath id="clip0_55_1442">
<rect width="200" height="66" fill="white" transform="translate(0 0.500488)"/>
</clipPath>
<clipPath id="clip1_55_1442">
<rect width="196.99" height="65" fill="white" transform="translate(0 0.500488)"/>
</clipPath>
</defs>
</svg>
